<svg id="Capa_1" data-name="Capa 1" xmlns="http://www.w3.org/2000/svg" viewBox="0 0 734.76 330.29"><defs><style>.cls-1{fill:#fdfdfd;}.cls-2{fill:#fe9122;}.cls-3{fill:#e10916;}.cls-4{fill:#003370;}.cls-5{fill:#8a1229;}.cls-6{fill:#6c7274;}.cls-7{fill:#00579b;}.cls-8{fill:#00234d;}.cls-9{fill:#003875;}.cls-10{fill:#df0639;}.cls-11{fill:#044b84;}.cls-12{fill:#95acc5;}.cls-13{fill:#8b132a;}.cls-14{fill:#8c152c;}.cls-15{fill:#8b1229;}.cls-16{fill:#ccc8d3;}.cls-17{fill:#00468a;}.cls-18{fill:#01579c;}.cls-19{fill:#065a9e;}.cls-20{fill:#03589c;}.cls-21{fill:#075c9e;}.cls-22{fill:#df083b;}.cls-23{fill:#df083a;}.cls-24{fill:#df073a;}.cls-25{fill:#0284d6;}.cls-26{fill:#52276e;}.cls-27{fill:#055a9d;}.cls-28{fill:#0c5fa0;}.cls-29{fill:#02589c;}.cls-30{fill:#085c9f;}.cls-31{fill:#04599d;}.cls-32{fill:#226da8;}.cls-33{fill:#e9f0f5;}.cls-34{fill:#3176ad;}.cls-35{fill:#e4315b;}.cls-36{fill:#1967a5;}.cls-37{fill:#e21e4c;}.cls-38{fill:#e7476d;}.cls-39{fill:#ee7c97;}.cls-40{fill:#236ca7;}.cls-41{fill:#7b7b7b;}.cls-42{fill:#e42f59;}.cls-43{fill:#f4b4c3;}.cls-44{fill:#fefefe;}.cls-45{fill:#fefdfd;}.cls-46{fill:#476c98;}.cls-47{fill:#e1091e;}.cls-48{fill:#d47f28;}.cls-49{fill:#e68624;}.cls-50{fill:#f6f9fb;}.cls-51{fill:#f8fafb;}.cls-52{fill:#fbfcfd;}.cls-53{fill:#e4edf4;}.cls-54{fill:#ecf2f7;}.cls-55{fill:#e2ebf3;}.cls-56{fill:#2d73aa;}.cls-57{fill:#013470;}.cls-58{fill:#fdfdfe;}.cls-59{fill:#fcfdfd;}.cls-60{fill:#27629b;}.cls-61{fill:#336ba0;}.cls-62{fill:#7299bd;}.cls-63{fill:#6d95ba;}.cls-64{fill:#0c2a51;}.cls-65{fill:#102c4f;}.cls-66{fill:#e20e1f;}.cls-67{fill:#1f3959;}.cls-68{fill:#1d3553;}.cls-69{fill:#3d4049;}.cls-70{fill:#1b2f4a;}.cls-71{fill:#273c56;}.cls-72{fill:#fdd8b7;}.cls-73{fill:#0d2a4c;}.cls-74{fill:#08274e;}.cls-75{fill:#2f445f;}.cls-76{fill:#313c51;}.cls-77{fill:#675648;}.cls-78{fill:#122a52;}.cls-79{fill:#0b254d;}.cls-80{fill:#272e53;}.cls-81{fill:#182f56;}.cls-82{fill:#192b51;}.cls-83{fill:#132c53;}.cls-84{fill:#db0d22;}.cls-85{fill:#222e53;}.cls-86{fill:#21385c;}.cls-87{fill:#0c2a52;}.cls-88{fill:#1e2249;}.cls-89{fill:#0a2951;}.cls-90{fill:#202c52;}.cls-91{fill:#07264f;}.cls-92{fill:#bb0d26;}.cls-93{fill:#15234a;}.cls-94{fill:#d73444;}.cls-95{fill:#fd870e;}.cls-96{fill:#004882;}.cls-97{fill:#080808;}.cls-98{fill:#090909;}.cls-99{fill:#0d0d0d;}.cls-100{fill:#0a0a0a;}.cls-101{fill:#010101;}.cls-102{fill:#101010;}.cls-103{fill:#111;}.cls-104{fill:#141414;}.cls-105{fill:#171717;}.cls-106{fill:#181818;}.cls-107{fill:#0e0e0e;}.cls-108{fill:#050505;}.cls-109{fill:#0f0f0f;}.cls-110{fill:#060606;}.cls-111{fill:#0b0b0b;}.cls-112{fill:#c1c1c1;}.cls-113{fill:#1a1a1a;}.cls-114{fill:#131313;}.cls-115{fill:#404040;}.cls-116{fill:#444;}.cls-117{fill:#202020;}.cls-118{fill:#414141;}.cls-119{fill:#363636;}.cls-120{fill:#2b2b2b;}.cls-121{fill:#393939;}.cls-122{fill:#787878;}.cls-123{fill:#191919;}.cls-124{fill:#040404;}.cls-125{fill:#383838;}.cls-126{fill:#2f2f2f;}.cls-127{fill:#3b3b3b;}.cls-128{fill:#353535;}.cls-129{fill:#0b4e8f;}.cls-130{fill:#b4c8db;}.cls-131{fill:#fd9326;}.cls-132{fill:#213854;}.cls-133{fill:#f29434;}.cls-134{fill:#103058;}.cls-135{fill:#fea549;}.cls-136{fill:#434043;}.cls-137{fill:#df0c21;}.cls-138{fill:#254366;}.cls-139{fill:#4b637f;}.cls-140{fill:#e10c20;}.cls-141{fill:#01234d;}.cls-142{fill:#1e3157;}.cls-143{fill:#dd0c21;}.cls-144{fill:#de1529;}.cls-145{fill:#db1428;}.cls-146{fill:#18345a;}.cls-147{fill:#04264f;}.cls-148{fill:#211f46;}.cls-149{fill:#fcfcfd;}.cls-150{fill:#f9f9f9;}.cls-151{fill:#f3f3f3;}.cls-152{fill:#d6d6d6;}.cls-153{fill:#fcfcfc;}.cls-154{fill:#e2e2e2;}.cls-155{fill:#f8f8f8;}.cls-156{fill:#034a83;}.cls-157{fill:#024983;}</style></defs><path class="cls-1" d="M31.16,198.93q0-31.27,0-62.54c0-1.26.24-1.53,1.52-1.53q365.82.06,731.64,0c1.41,0,1.59.36,1.59,1.64q0,163.51,0,327c0,1.33-.26,1.62-1.61,1.62q-365.73-.06-731.46,0c-1.45,0-1.69-.38-1.68-1.73q0-131.87,0-263.74c1.06.13,1.06,1.1,1.31,1.79,3.51,9.34,6.83,18.75,10.25,28.13,5.58,15.32,11.08,30.67,16.67,46,1.91,5.24,3.82,10.48,5.68,15.74.8,2.27,1,2.39,3.33,2.39h8.38c2.31,0,2.5-.11,3.13-2.3,2.29-7.92,4.67-15.82,7-23.72,3.23-10.88,6.42-21.77,9.69-32.63a8.28,8.28,0,0,1,.49-1.4c.38-.75.85-.62,1.28-.07a5.25,5.25,0,0,1,.79,1.87q6.81,23.29,13.66,46.59c1,3.33,2,6.66,2.93,10a2,2,0,0,0,2.26,1.69c3.23,0,6.46-.07,9.68,0a2.49,2.49,0,0,0,2.75-1.93c3.07-8.64,6.26-17.25,9.38-25.88,2.62-7.23,5.29-14.44,7.88-21.68a3.31,3.31,0,0,1,1.17-1.85c.54,0,.66.41.79.82a97.85,97.85,0,0,0,.85,12.78c3.6,21.34,21.87,38.67,43.31,40.58,20.11,1.79,35.59-6.2,46.61-23a38.42,38.42,0,0,0,3.63-7.53c.4-1,.19-1.5-1-1.5-7.08,0-14.15,0-21.23,0-1.38,0-2.1.85-2.8,1.85-3.57,5.17-8.3,8.71-14.54,9.91-10.35,2-19-1.27-26-9a26.09,26.09,0,0,1-4.81-8.12c-1-2.59-.66-3.09,2.06-3.13h67.61c3,0,3.21.25,3.21,3.16q0,14.24,0,28.47c0,1.43,0,2.86,0,4.28,0,1.17.48,1.69,1.66,1.69h16.39c1.27,0,1.8-.5,1.78-1.77,0-2.17,0-4.34,0-6.51,0-.83-.28-2,.68-2.33.81-.29,1.41.62,2,1.18a45,45,0,0,0,11.27,8.45,39.12,39.12,0,0,0,15.73,4,44.63,44.63,0,0,0,23.26-4.57c12.68-6.34,20.49-16.71,24.58-30.09a48,48,0,0,0,2.11-15.06c-.4-18.72-7.72-33.9-23.85-44.15a41.4,41.4,0,0,0-22-6.48c-6.55-.1-12.87.66-18.91,3.3a40.54,40.54,0,0,0-9.68,6.21c-.78.65-1.6,1.88-2.62,1.42s-.63-1.89-.63-2.9q0-17,0-34.06c0-2.53-.05-2.59-2.61-2.59H249.13c-2.4,0-2.48.08-2.48,2.54q0,27.63,0,55.27c0,1.07.3,2.24-.64,3.16-.91-.48-1.07-1.39-1.4-2.16-6.09-14.1-16.16-24.08-30.93-28.64-16.51-5.08-31.63-1.83-45.21,8.79a44,44,0,0,0-7.2,7.24,9.82,9.82,0,0,1-.71.86c-.47.49-1,1.23-1.69.85s-.23-1.24,0-1.83c1.37-4.06,2.89-8.06,4.36-12.08.79-2.16.68-2.35-1.59-2.36-6.14,0-12.29.05-18.44,0a2.71,2.71,0,0,0-3,2.28Q133,225,125.79,248.3c-.66,2.13-1.29,4.28-2,6.4-.24.72-.33,1.87-1.25,1.84-.74,0-.84-1.12-1-1.83-1.32-4.59-2.52-9.21-3.73-13.83-3.41-13-6.94-26-10.35-39-.58-2.22-.77-2.38-3.05-2.38-4.28,0-8.57,0-12.85,0-1.61,0-2.28.61-2.69,2.13q-7.08,26.32-14.34,52.6c-.23.83-.13,2.17-1.32,2.14-1,0-1-1.27-1.25-2.06q-7.79-25.65-15.48-51.31c-.13-.42-.31-.82-.4-1.24-.34-1.68-1.31-2.28-3-2.26-6.4.08-12.79,0-19.19,0C32.91,199.44,32,199.61,31.16,198.93Z" transform="translate(-31.12 -134.86)"/><path d="M31.16,198.93c7.64,0,15.27,0,22.91,0,1.23,0,1.78.25,2.17,1.55Q64.47,228,72.86,255.51c.06.22.15.44.41,1.18.94-3.41,1.77-6.34,2.57-9.28q6.41-23.55,12.76-47.1a1.61,1.61,0,0,1,1.88-1.41q7.63.1,15.28,0c1.15,0,1.55.34,1.84,1.46q7.19,27.28,14.47,54.54c.14.52.32,1,.57,1.82,2.59-8.41,5.11-16.56,7.62-24.71,3.26-10.58,6.53-21.14,9.74-31.73a1.66,1.66,0,0,1,1.93-1.38q10.62.07,21.23,0c1.25,0,1.63.12,1.11,1.49-1.92,5-3.69,10.08-5.56,15.22.95.14,1.2-.8,1.62-1.33a49.35,49.35,0,0,1,26.88-17.61c23.74-6.09,48.43,6.57,57.78,29.56a7.48,7.48,0,0,0,1.13,2.11V226.6c0-19.17,0-38.34,0-57.51,0-1.55.36-1.93,1.91-1.91q9.67.15,19.37,0c1.46,0,1.7.43,1.7,1.77-.06,12.1,0,24.2,0,36.3v2.17c.77-.65,1.36-1.11,1.92-1.62,8.62-7.73,18.91-10.53,30.23-10,22.13,1.09,40.21,18.09,44.34,40.37,3.19,17.23-.45,32.92-12.26,46.2-13.11,14.72-35.32,19.35-52.35,11.23a41.3,41.3,0,0,1-11-7.85c-.83-.81-1.6-1.68-2.76-2.91,0,3.71-.05,6.84,0,10,0,1.16-.31,1.44-1.44,1.43-6-.06-12-.08-18.07,0-1.34,0-1.6-.37-1.6-1.64.06-11.42,0-22.84.06-34.25,0-1.18-.11-1.73-1.54-1.72q-34.94.07-69.86,0c-.36,0-.72,0-1.23.06a26.73,26.73,0,0,0,11.31,15.44c9.92,6.62,25.85,6.51,34.46-6.91.39-.61.66-1.23,1.64-1.23,8.07.05,16.13,0,24.36,0A42.29,42.29,0,0,1,236.54,280c-9.91,11.36-22.4,17.46-37.53,17.47a50.09,50.09,0,0,1-49.07-41.82,60,60,0,0,1-.65-12.41c.23-.81.23-.81-.38-.74q-9.16,25.19-18.3,50.38a1.73,1.73,0,0,1-2,1.37c-3.79-.08-7.57-.09-11.36,0-1.17,0-1.56-.43-1.86-1.44Q107,264,98.54,235.15c-.18-.6-.11-1.36-.87-1.86Q93.29,248,89,262.62c-3,10-6,20-8.89,30.05-.36,1.25-.85,1.63-2.14,1.59q-5.3-.15-10.61,0A2,2,0,0,1,65,292.64q-10.53-29.2-21.15-58.39-6-16.63-12-33.29c-.16-.44-.15-1-.64-1.29Z" transform="translate(-31.12 -134.86)"/><path class="cls-2" d="M533.37,201.43v2.5q0,40.95,0,81.9c0,1.61-.29,2.22-2.08,2.17-5.46-.13-10.93-.08-16.39,0-1.33,0-1.69-.4-1.65-1.69.09-2.85,0-5.7,0-8.79-11.69,10.6-25,15.81-40.64,12.59S447,276.76,440.89,261.93a53.65,53.65,0,0,1-6.34,11.18c-11.45,15.07-29.18,20.83-46.77,16.64-5-1.18-9.19-4-13.08-7.21-1-.86-2-1.75-3.34-2.87V282c0,11.23,0,22.46,0,33.68,0,1.79-.29,2.45-2.29,2.4-5.71-.17-11.42-.06-17.13-.06-2.43,0-2.43,0-2.43-2.37v-88.4c0-9.25,0-18.49,0-27.74,0-1.68.49-2.06,2.09-2,5.34.1,10.68.11,16,0,1.62,0,2,.51,1.91,2-.12,2.69,0,5.4,0,8.14,1-.91,1.94-1.68,2.8-2.53,8.6-8.65,19.23-11.57,31-10.39C421,196.47,433.17,206,440.5,222c.15.33.2.73.63.85,12.37-30.56,50.81-38.05,72.18-14.23v-7.42a11.6,11.6,0,0,0,0-1.67c-.24-1.6.3-2.1,2-2.09q19.83.12,39.67,0a2.32,2.32,0,0,1,2.61,1.9q9.46,27.09,19.06,54.14c.14.41.32.8.52,1.28.74-.38.76-1.11,1-1.69q10.18-26.84,20.31-53.69a2.46,2.46,0,0,1,2.77-1.93c6.89.09,13.79,0,20.68,0,2.25,0,2.24,0,1.38,2q-13.93,32.13-27.85,64.27Q584,290,572.69,316.29a2.39,2.39,0,0,1-2.58,1.75c-6.58-.09-13.16-.08-19.74,0-1.53,0-2-.18-1.24-1.79,5.16-11.8,10.23-23.64,15.35-35.46a3.1,3.1,0,0,0,.17-2.63q-15.45-37.93-30.83-75.91C533.78,202.12,533.71,202,533.37,201.43Z" transform="translate(-31.12 -134.86)"/><path class="cls-3" d="M667.49,267.74H636.76c-3.67,0-5.34-1.67-5.35-5.33,0-20.23,0-40.45,0-60.67a12,12,0,0,1,3.6-8.69l55.83-55.52c2.82-2.8,5-2.78,7.79,0L752.41,191c3.61,3.58,7.24,7.16,10.83,10.75,2.37,2.37,2.42,4.63.09,7q-28.38,28.2-56.82,56.36c-2.22,2.2-5.3,2.67-8.29,2.69C688,267.79,677.73,267.74,667.49,267.74Z" transform="translate(-31.12 -134.86)"/><path class="cls-4" d="M611.59,329.25c.68,0,1.36-.08,2-.08h137l-15.32,59.59a3.79,3.79,0,0,1-2.18.21H596.82c-1.32-.31-.7-1.27-.56-1.94.53-2.43,1.15-4.83,1.79-7.23,4.18-15.88,8.15-31.82,12.3-47.72C610.62,331.08,610.68,330,611.59,329.25Z" transform="translate(-31.12 -134.86)"/><path class="cls-5" d="M611.59,329.25Q604,359,596.33,388.73c-.54.45-1.19.23-1.79.23q-55.18,0-110.37,0a3.37,3.37,0,0,1-1.83-.18c0-3.22,0-6.45-.11-9.66-.06-1.49.39-1.85,1.85-1.84,14,.05,27.94,0,41.9.08,1.74,0,2.49-.46,2.9-2.15,1-4.08,2.24-8.11,3.28-12.18.27-1,.68-1.44,1.75-1.37,1.74.1,3.49,0,5.21.14,2.24.23,2.76,1,2.56,3.19a40.27,40.27,0,0,1-1.4,6.15,31.46,31.46,0,0,0-1,5.1c-.07.82.16,1.11,1,1.08,1.49,0,3,0,4.47,0,.87,0,1.36-.35,1-1.22-.67-1.78,0-3.42.45-5.08.65-2.64,1.59-5.22,1.8-8,.11-1.46.06-2.92-1-4-.72-.74-.25-.88.27-1.29a15.92,15.92,0,0,0,6.24-14.86c-.36-3.74-2.33-5.36-6.06-5.4-4.22-.05-8.45,0-12.67-.05-1.14,0-1.5.45-1.74,1.4-.76,2.93-1.6,5.85-2.35,8.78A1.51,1.51,0,0,1,529,349q-22.64-.08-45.26,0c-1.35,0-1.46-.52-1.45-1.62,0-5.52.08-11,0-16.56,0-1.5.51-1.68,1.8-1.67,14.22,0,28.44,0,42.65,0h82.69C610.1,329.17,610.85,329.22,611.59,329.25Z" transform="translate(-31.12 -134.86)"/><path class="cls-6" d="M325.05,341.51c0,15.32,0,30.63.09,45.95,0,1.54-.82,1.33-1.75,1.33H282.81c-16.32,0-32.64,0-49,0-1.6,0-2.08-.34-2.07-2q.09-27.81,0-55.63c0-1.63.41-2.07,2.05-2.05,8.19.11,16.38.09,24.57.11.19,1-.49,1.75-.95,2.53-2.85,4.79-5.83,9.51-8.67,14.31a2.16,2.16,0,0,0-.53,1.37c.61.44,1.31.24,2,.24,22.66,0,45.31,0,68,.05,1.79,0,2.94-.5,3.69-2.09a32,32,0,0,1,1.7-2.88C323.91,342.21,324.22,341.53,325.05,341.51Z" transform="translate(-31.12 -134.86)"/><path class="cls-7" d="M363.28,357.8c-.32,1.38.94,1.51,2.65,1.44,2.95-.12,5.91,0,8.86,0,.87,0,1.66.08,2.12-1a.88.88,0,0,1,1.62-.09c.52,1.33,1.52,1.17,2.45,1.05,1.4-.19,3,.71,4.21-.59,1.13,1,2.53.46,3.8.63s1.58-.41,1.54-1.59c-.08-2.23-.08-4.47,0-6.7,0-1.2-.31-1.66-1.57-1.56-5.86.44-11.74.11-17.61.17-6.83.07-13.68,0-20.52-.18-1.71,0-3.2,0-3.64,2.37-.47-2.71-2.29-2.41-4.05-2.35a43.55,43.55,0,0,1-5.11,0c-1.47-.12-2.33.32-2.74,1.76a4.84,4.84,0,0,1-1.24,2.07V342.52c0-3.79.08-7.57,0-11.35-.05-1.59.3-2.06,2-2.05,14.52.08,29.05,0,43.57,0,4.1,0,8.2,0,12.29,0,1.15,0,1.46.29,1.45,1.44q-.07,14.7,0,29.4c0,1.06-.31,1.35-1.36,1.34-5.13-.05-10.26,0-15.39,0-5.71,0-11.42,0-17.13,0-1.34,0-2.46.15-3.24,1.56-.9-1.55-2.27-1.6-3.73-1.55-1.8.07-3.6.06-5.4,0-.95,0-1.33.27-1.31,1.26q.08,3.72,0,7.44c0,1,.32,1.3,1.29,1.27,2.17-.06,4.45.37,6.49-.14,1.79-.44,3.25-.77,5,.06.81.38,2,0,3,.07s1.43-.13,1.33-1.19c-.18-1.79,1.32-1.06,2.09-1.25,1.12-.28.75.73.73,1.21-.06,1,.37,1.35,1.31,1.22a3.37,3.37,0,0,1,.55,0c1.71.14,3.36.21,2.76-2.47.55,2.47.55,2.53,3.1,2.46,4.14-.12,8.29,0,12.45-.17,2.41-.13,4.89.25,7.48-.17,0,5.58,0,11.09,0,16.6,0,1.08-.59,1-1.3,1H381c-15,0-30,0-45.06,0-1.53,0-2-.32-1.94-1.9q.12-12.84,0-25.68c0-1.35.27-2,1.71-1.73a1.34,1.34,0,0,0,1.65-.82c.47-1,1.36-1,1.79-.07s1.2.9,2,.9h19.36C362,359.2,364.06,359.78,363.28,357.8Z" transform="translate(-31.12 -134.86)"/><path class="cls-8" d="M181.3,388.85c-15.14,0-30.29,0-45.44,0-1.43,0-1.85-.32-1.85-1.82q.09-28.1,0-56.19c0-1.41.36-1.74,1.75-1.74q45.54.06,91.07,0c1.37,0,1.76.3,1.76,1.73q-.09,28.09,0,56.19c0,1.48-.39,1.84-1.85,1.83C211.6,388.83,196.45,388.85,181.3,388.85Z" transform="translate(-31.12 -134.86)"/><path class="cls-9" d="M131.34,388.76c-.62,0-1.23.09-1.85.09q-45.23,0-90.44,0c-1.59,0-2-.32-2-2,.07-18.59.05-37.19.05-55.78,0-.62.06-1.23.08-1.85.06,0,.11-.09.16-.09,5.07-.34,4.42-.4,4.43,3.75q0,18.48,0,37c.12,3,.87,4.05,3.46,4.88a16.4,16.4,0,0,0,3,.1H127.3c.75,0,1.49,0,2.24,0,1.43-.05,2.11.43,2.05,2.05-.12,3.47,0,6.95,0,10.42C131.55,387.81,131.69,388.33,131.34,388.76Z" transform="translate(-31.12 -134.86)"/><path class="cls-6" d="M259.18,329.24c3.28,0,6.56-.07,9.85-.07,18,0,36.05,0,54.08,0,1.62,0,2.13.37,2,2-.17,3-.09,5.93-.11,8.9-1,2.58-2.64,4.76-4,7.1a1.36,1.36,0,0,1-1.25.66c-.56,0-1.12,0-1.68,0q-33.51,0-67,0c-.89,0-2.07.45-2.62-.41s.46-1.69.9-2.45c2.81-4.74,5.72-9.42,8.54-14.15A7.56,7.56,0,0,1,259.18,329.24Z" transform="translate(-31.12 -134.86)"/><path class="cls-10" d="M645.56,462c-.55.66.11,1.88-1,2.06a8.76,8.76,0,0,1-4-.08c-.53-.17-.44-.83-.44-1.32q0-18.06,0-36.1c0-1.08.4-1.65,1.53-1.58.18,0,.37,0,.56,0,3.11,0,3.11,0,3.11,3v8.5a13.93,13.93,0,0,1,8.14-2.34c6.29.17,10.3,3.27,11.65,9.39a25.69,25.69,0,0,1-.33,12.71,12,12,0,0,1-18.3,6.37Z" transform="translate(-31.12 -134.86)"/><path class="cls-10" d="M580.69,448.92c-.08,2.59.26,5.2-.24,7.79-.78,4-3.14,6.43-7.1,7.11a26.9,26.9,0,0,1-10.54-.15,8.68,8.68,0,0,1-.55-16.8,14.49,14.49,0,0,1,4.39-.69c1.74,0,3.49.13,5.21,0,1.17-.12,2.79.88,3.47-.62.79-1.73-.48-4.82-2-5.78-3.11-2-9.1-1.24-11.49,1.54-1.07,1.24-1.86,1.18-2.86.09a4.5,4.5,0,0,0-.85-.72c-1.45-1-1.19-1.91-.11-3a10.66,10.66,0,0,1,5.34-3.19,18.91,18.91,0,0,1,12.37.86,8.11,8.11,0,0,1,4.95,7.3C580.81,444.7,580.69,446.81,580.69,448.92Z" transform="translate(-31.12 -134.86)"/><path class="cls-10" d="M692.44,449.39c-.11,2.08.2,4.62-.29,7.15-.8,4.13-3,6.61-7.11,7.32a28.32,28.32,0,0,1-10.18-.07,8.32,8.32,0,0,1-7.17-9c.16-4.43,3.17-7.55,8-8.33,3.27-.54,6.56-.27,9.84-.26,1.25,0,1.57-.37,1.56-1.57-.06-3.66-1.28-5.22-4.94-5.71-3.42-.47-6.73-.38-9.06,2.79-.55.75-1.16.7-1.91.16-3.07-2.23-3.13-3.12-.14-5.46s6.72-2.67,10.42-2.49a19.51,19.51,0,0,1,4.21.71,8.83,8.83,0,0,1,6.77,8.71C692.49,445.22,692.44,447.08,692.44,449.39Z" transform="translate(-31.12 -134.86)"/><path class="cls-10" d="M729.13,448.85,742,435.21c1-1.08,4.94-1.92,6.17-1.23s.38,1.23-.12,1.76c-2.33,2.49-4.66,5-7,7.44s-2.47,2.54-.48,5.43c3.13,4.54,6.29,9.06,9.42,13.59.31.45.84.85.55,1.48s-1,.39-1.48.49c-2.82.48-4.65-.5-6.14-3.09-2.31-4-5.08-7.76-7.75-11.76-1.91,2.05-3.71,4-5.53,5.94a2.32,2.32,0,0,0-.44,1.74c0,1.86,0,3.72,0,5.58,0,1.09-.37,1.54-1.5,1.6-3.6.19-3.59.23-3.59-3.36,0-11.29.05-22.57,0-33.85,0-2.09,1-2.13,2.49-2.1s2.72-.13,2.68,2.13C729.05,434.11,729.13,441.22,729.13,448.85Z" transform="translate(-31.12 -134.86)"/><path class="cls-10" d="M624.2,433.81a20.71,20.71,0,0,1,10.32,2.73c1.28.78,1.61,1.63.56,2.83a5.24,5.24,0,0,0-.74,1.07c-.7,1.32-1.51,1.3-2.68.47A12.54,12.54,0,0,0,621.38,439a5.58,5.58,0,0,0-1.39.48,3.53,3.53,0,0,0-2,3.65c.11,1.63,1.18,2.37,2.62,2.71,2.91.71,5.91.6,8.85,1,6.46.91,9.6,6.37,6.79,11.89a8.07,8.07,0,0,1-4.29,3.95,20.32,20.32,0,0,1-18.55-1.32c-.82-.48-2.2-1-1.83-2.26a6.47,6.47,0,0,1,2.52-3.11c.61-.46,1.13.19,1.6.58,3.93,3.24,8.4,3.22,13,2.13a3.57,3.57,0,0,0,1-.47,3.63,3.63,0,0,0,1.91-3.73,3,3,0,0,0-2.84-2.74c-2.45-.36-4.93-.55-7.39-.78a13.87,13.87,0,0,1-3.62-.8c-3.06-1.12-5-3.22-5.28-6.54a7.9,7.9,0,0,1,3.6-7.66A14.49,14.49,0,0,1,624.2,433.81Z" transform="translate(-31.12 -134.86)"/><path class="cls-10" d="M720.45,453.29c0,3,0,6.08,0,9.12,0,1.28-.43,1.74-1.72,1.77-3.51.09-3.51.13-3.51-3.31,0-5.33,0-10.66-.09-16-.08-3.27-1.72-5.29-4.53-6.07-5.44-1.52-9.46,1.42-9.53,7.07q-.09,8.17,0,16.37c0,1.46-.47,2.07-1.93,1.92a11.64,11.64,0,0,0-1.67,0c-1.18.06-1.67-.42-1.66-1.64,0-5.83-.12-11.66,0-17.48.22-7.88,6.36-12.4,14.72-11.05,6.27,1,9.61,4.76,9.8,11.12.09,2.73,0,5.46,0,8.18Z" transform="translate(-31.12 -134.86)"/><path class="cls-10" d="M584.34,453.18c0-2.85-.14-5.71,0-8.55.35-6.17,3.53-9.61,9.65-10.61a15.78,15.78,0,0,1,7.53.57c4.44,1.44,7.12,5.07,7.22,10.17.11,5.89,0,11.78,0,17.67,0,1.28-.45,1.86-1.74,1.73-.13,0-.25,0-.37,0-3.09,0-3.09,0-3.09-3,0-5.08,0-10.17,0-15.25-.08-5.74-4-8.64-9.45-7.14-2.95.81-4.55,3-4.57,6.41,0,5.52,0,11,0,16.55,0,.83.33,2-.76,2.25a6.29,6.29,0,0,1-4.17-.17c-.54-.25-.38-1-.38-1.54q0-4.56,0-9.11Z" transform="translate(-31.12 -134.86)"/><path class="cls-11" d="M436.7,329.16H471c4.18,0,6.45,2.26,6.45,6.41q0,23.44,0,46.89c0,3.83-2.41,6.26-6.27,6.26q-34.36,0-68.72,0c-4,0-6.35-2.39-6.36-6.37q0-23.53,0-47.07c0-3.82,2.35-6.11,6.18-6.12Q419.49,329.15,436.7,329.16Z" transform="translate(-31.12 -134.86)"/><path class="cls-10" d="M520.76,441.73V427.59c0-2.63,0-2.63,2.72-2.63a1.2,1.2,0,0,0,.19,0c1.73-.25,2.5.35,2.34,2.22s0,3.72,0,5.58c0,1,.31,1.33,1.27,1.29,1.18-.06,2.36,0,3.54,0s1.52.36,1.56,1.5c.14,3.7.18,3.7-3.51,3.7-2.84,0-2.84,0-2.84,2.84,0,4.28,0,8.56,0,12.84,0,3.25.69,3.91,3.9,4,.82,0,2-.39,2.28.67a7.51,7.51,0,0,1-.1,4.2c-.06.16-.41.27-.63.3-5.9.7-10.71-1-10.67-8.34C520.78,451,520.76,446.38,520.76,441.73Z" transform="translate(-31.12 -134.86)"/><path class="cls-10" d="M541.24,436.67c4.08-3.91,9.12-3.7,12.89.32,1,1,1.12,1.84-.07,2.74a14.63,14.63,0,0,0-1.4,1.21c-.76.75-1.44.87-2.17-.06-1.61-2-3.68-2.75-6.1-1.71s-3.21,3.19-3.24,5.61c-.06,5.7,0,11.4,0,17.09,0,.75.4,1.86-.61,2.12a6.51,6.51,0,0,1-4.18-.14c-.52-.22-.34-.88-.34-1.36,0-8.92,0-17.84,0-26.76,0-1.42.58-1.9,1.87-1.83h.56C541,433.88,541,433.88,541.24,436.67Z" transform="translate(-31.12 -134.86)"/><path class="cls-12" d="M131.34,388.76c0-3.78-.08-7.56,0-11.33,0-1.55-.24-2.06-2-2.05q-41.28.09-82.57,0c-.78,0-1.62.26-2.33-.32,1-1,2.21-.67,3.35-.67q34.35,0,68.7,0c3.84,0,7.69,0,11.54,0,2,0,2.29-.24,2.29-2.23q0-19.91,0-39.81c0-2-.21-2.14-2.34-2.15q-14.7,0-29.41,0h-54c-2.29,0-2.43.16-2.44,2.44,0,11.65,0,23.31,0,35,0,1,.43,2.29-.89,3,0-4.14-.09-8.29-.1-12.43,0-9-.06-18,0-26.93,0-1.7-.47-2.19-2-2a15.56,15.56,0,0,1-2,0c.56-.62,1.29-.33,1.93-.34q45.12,0,90.25-.05c1.86,0,2.42.46,2.41,2.37-.07,18.53,0,37.07,0,55.6C131.68,387.48,132,388.21,131.34,388.76Z" transform="translate(-31.12 -134.86)"/><path class="cls-13" d="M528.84,353.79c-.61,2.92-.61,2.92-3.25,2.92-13.84,0-27.69,0-41.54,0-1.5,0-1.91-.43-1.82-1.87,0-.94.38-1.1,1.21-1.1C498.53,353.8,513.61,353.79,528.84,353.79Z" transform="translate(-31.12 -134.86)"/><path class="cls-14" d="M504.58,361.55c6.76,0,13.53,0,20.3,0,.55,0,1.76-.66,1.69.6-.06,1-.1,2.31-2,2.27-5-.13-10,0-15.08,0H484.21c-1,0-2,.26-2-1.48s1.14-1.38,2.08-1.38C491,361.54,497.81,361.55,504.58,361.55Z" transform="translate(-31.12 -134.86)"/><path class="cls-5" d="M503.51,369.26c6.27,0,12.54,0,18.81.05.67,0,2.14-.9,2.06.8,0,1.19-.19,2.44-2.2,2.41-9.68-.12-19.37,0-29,0-3.11,0-6.21-.05-9.31,0-1.16,0-1.65-.22-1.59-1.5,0-1.12.06-1.79,1.54-1.77C490.35,369.3,496.93,369.26,503.51,369.26Z" transform="translate(-31.12 -134.86)"/><path class="cls-15" d="M541.57,344.49c1,0,2-.05,3,0,2,.12,2.84,1.06,2.76,3a10.6,10.6,0,0,1-1.52,5.1,4.65,4.65,0,0,1-3.38,2.36,61.24,61.24,0,0,1-7,.17c-.8,0-.92-.32-.72-1,.84-2.91,1.66-5.82,2.41-8.74.19-.73.56-.85,1.18-.84C539.34,344.5,540.46,344.49,541.57,344.49Z" transform="translate(-31.12 -134.86)"/><path class="cls-16" d="M482.34,388.78H595c.44,0,.87,0,1.3-.06s1,.06,1.49.06H734c.43,0,.87,0,1.3,0-.64.77-1.51.39-2.26.39q-105.76,0-211.51,0-18.53,0-37.05,0C483.74,389.14,483,389.46,482.34,388.78Z" transform="translate(-31.12 -134.86)"/><path class="cls-17" d="M259.18,329.24l-8.46,14.15-2.26,3.79a3,3,0,0,0,1.95.28q34,0,68.07,0a3,3,0,0,0,3.06-1.77c1.06-1.94,2.32-3.78,3.5-5.67v1.45c-1.09,1.73-2.3,3.39-3.23,5.2a2.64,2.64,0,0,1-2.8,1.53c-11-.05-22.1,0-33.15,0h-39c4-6.5,7.73-12.74,11.51-19Z" transform="translate(-31.12 -134.86)"/><path class="cls-18" d="M347.4,366.1c0-3.31,0-3.29,3.28-3.32,1.85,0,3.73-.26,4.86,1.76.46.82.89.19,1.29-.17.67-.58,1.05-1.62,2.16-1.57,2,.09,4.1-.35,6.08.36a1.89,1.89,0,0,1,1.15,2.12,1.83,1.83,0,0,1-1.48,1.89,16,16,0,0,1-2.4.19c-.58,0-1.09,0-1.12.83,0,.53.42,1.43-.53,1.5s-2,.41-2.84-.36a1.85,1.85,0,0,1-.38-.41c-.91-1.4-1.83-1.62-2.81-.05-.58.93-1.51.94-2.46.87-.37,0-.74,0-1.12,0C347.4,369.74,347.4,369.74,347.4,366.1Z" transform="translate(-31.12 -134.86)"/><path class="cls-19" d="M341.89,356.71c1.14-1.13.21-2.55.53-3.8.18-.69-.56-1.77.67-2s2.18-.19,2.62,1.31a24,24,0,0,0,1.56,3.39c.62-1.4,1.19-2.51,1.59-3.67.3-.87.8-1.06,1.66-1.1,1.1,0,1.59.22,1.5,1.43s0,2.73,0,4.09c0,.56.27,1.32-.77,1.35s-.83-.68-.84-1.27c0-1.12,0-2.23,0-3.58-1.09,1.09-1.29,2.44-1.9,3.57-.31.56-.38,1.34-1.34,1.29s-.93-.69-1.18-1.23a17.65,17.65,0,0,0-1.91-3.45,14.42,14.42,0,0,0,0,2.46c.37,2-.64,2.49-2.37,2.22-.3-.05-.58-.15-.87-.22C341,357,342.05,357.66,341.89,356.71Z" transform="translate(-31.12 -134.86)"/><path class="cls-20" d="M380.28,357.5a2.93,2.93,0,0,0-4.77-.27c-.71.83-3.46.65-4.44-.28a4.26,4.26,0,0,1-.49-4.53c.87-1.58,2.37-1.59,3.89-1.53.48,0,.59.32.61.74,0,.8-.53.64-1,.68-2,.18-2.77,1.28-2.17,3a1.6,1.6,0,0,0,1.54,1.09c.75.09.95-.4,1.18-.92.48-1.13,1-2.25,1.44-3.41a1.82,1.82,0,0,1,3.46.06c.58,1.56,1.23,3.09,1.85,4.63C381.67,358,381,357.74,380.28,357.5Z" transform="translate(-31.12 -134.86)"/><path class="cls-21" d="M380.28,357.5c.55,0,1.06,0,1.09-.74.89-1.34.19-2.84.43-4.24.1-.58-.44-1.52.67-1.61.87-.08,1.83-.31,2.4.84s1.43,2.39,2.45,4.06v-4c0-.52,0-1,.76-1s.8.4.8.94c0,1.49,0,3,0,4.47,0,.49.32,1.26-.5,1.38s-1.6.35-2.13-.6c-.76-1.33-1.59-2.61-2.69-4.42-.06,1.16-.11,1.78-.11,2.41C383.42,358.07,383.38,358.1,380.28,357.5Z" transform="translate(-31.12 -134.86)"/><path class="cls-22" d="M475.68,408.2a3.12,3.12,0,0,1-3.13,3.23,3.29,3.29,0,0,1-3.16-3.26,3.13,3.13,0,0,1,3.1-3.06A3,3,0,0,1,475.68,408.2Z" transform="translate(-31.12 -134.86)"/><path class="cls-22" d="M759.2,408.28a3.13,3.13,0,0,1-3.21,3.15,3.23,3.23,0,0,1-3-3.34,3.07,3.07,0,0,1,3.15-3A3,3,0,0,1,759.2,408.28Z" transform="translate(-31.12 -134.86)"/><path class="cls-23" d="M715.55,408.31a3.19,3.19,0,0,1-3.25,3.12,3.23,3.23,0,0,1-3-3.18,3.07,3.07,0,0,1,3.18-3.14A3,3,0,0,1,715.55,408.31Z" transform="translate(-31.12 -134.86)"/><path class="cls-23" d="M538,411.43a3.22,3.22,0,0,1-3.07-3.31,3.07,3.07,0,0,1,3.31-3,3,3,0,0,1,3,3.15A3.18,3.18,0,0,1,538,411.43Z" transform="translate(-31.12 -134.86)"/><path class="cls-24" d="M671.94,408.16a3.29,3.29,0,0,1-3.15,3.27,3.21,3.21,0,0,1-3.16-3.22,3,3,0,0,1,3-3.1A3.1,3.1,0,0,1,671.94,408.16Z" transform="translate(-31.12 -134.86)"/><path class="cls-23" d="M650,408.23a3.12,3.12,0,0,1-3.14,3.2,3.16,3.16,0,0,1-3.08-3.28,3,3,0,0,1,3.07-3A3,3,0,0,1,650,408.23Z" transform="translate(-31.12 -134.86)"/><path class="cls-23" d="M497.54,408.29a3.14,3.14,0,1,1-6.27-.21,3,3,0,0,1,3.14-3A3.06,3.06,0,0,1,497.54,408.29Z" transform="translate(-31.12 -134.86)"/><path class="cls-23" d="M428.83,405.11a3,3,0,0,1,3.2,3.1,3.18,3.18,0,0,1-3.14,3.22,3.22,3.22,0,0,1-3.13-3.06A3.08,3.08,0,0,1,428.83,405.11Z" transform="translate(-31.12 -134.86)"/><path class="cls-23" d="M628.3,408.24a3.31,3.31,0,0,1-3.25,3.19,3.15,3.15,0,0,1-3.07-3.11,3,3,0,0,1,3.09-3.21A3.11,3.11,0,0,1,628.3,408.24Z" transform="translate(-31.12 -134.86)"/><path class="cls-23" d="M341.65,405.11a3.15,3.15,0,0,1,3.13,3.23,3.33,3.33,0,0,1-3.15,3.09,3.16,3.16,0,0,1-3.17-3.21A3,3,0,0,1,341.65,405.11Z" transform="translate(-31.12 -134.86)"/><path class="cls-23" d="M385.32,411.43a3.21,3.21,0,0,1-3.21-3.18,3,3,0,0,1,3-3.14,3.08,3.08,0,0,1,3.32,3A3.26,3.26,0,0,1,385.32,411.43Z" transform="translate(-31.12 -134.86)"/><path class="cls-23" d="M275.94,405.11a3.09,3.09,0,0,1,3.15,3.17,3.16,3.16,0,0,1-6.32,0A3.11,3.11,0,0,1,275.94,405.11Z" transform="translate(-31.12 -134.86)"/><path class="cls-23" d="M254.05,405.11a3,3,0,0,1,3.19,3.12,3.14,3.14,0,1,1-6.27.1A3,3,0,0,1,254.05,405.11Z" transform="translate(-31.12 -134.86)"/><path class="cls-23" d="M559.86,405.11a3.12,3.12,0,0,1,3.2,3.14,3.28,3.28,0,0,1-3.23,3.18,3.13,3.13,0,0,1-3.05-3.12A3,3,0,0,1,559.86,405.11Z" transform="translate(-31.12 -134.86)"/><path class="cls-23" d="M581.29,411.43a3.25,3.25,0,0,1-3-3.38,3.16,3.16,0,0,1,6.31.28A3.21,3.21,0,0,1,581.29,411.43Z" transform="translate(-31.12 -134.86)"/><path class="cls-23" d="M232.53,411.43a3.21,3.21,0,0,1-3.11-3.27,3.08,3.08,0,0,1,3.28-3.05,3,3,0,0,1,3,3.12A3.18,3.18,0,0,1,232.53,411.43Z" transform="translate(-31.12 -134.86)"/><path class="cls-23" d="M167.09,411.43a3.17,3.17,0,0,1-3.13-3.24,3,3,0,0,1,3-3.08,3,3,0,0,1,3.19,3.07A3.11,3.11,0,0,1,167.09,411.43Z" transform="translate(-31.12 -134.86)"/><path class="cls-23" d="M148.45,408.26a3.33,3.33,0,0,1-3.27,3.17,3.16,3.16,0,0,1-3.05-3.32,3,3,0,0,1,3.11-3A3.14,3.14,0,0,1,148.45,408.26Z" transform="translate(-31.12 -134.86)"/><path class="cls-23" d="M363.39,405.11a3,3,0,0,1,3.13,3.14,3.11,3.11,0,0,1-3.16,3.18,3.17,3.17,0,0,1-3.06-3.3A3,3,0,0,1,363.39,405.11Z" transform="translate(-31.12 -134.86)"/><path class="cls-23" d="M188.93,411.43a3.21,3.21,0,0,1-3.16-3.23,3.15,3.15,0,0,1,6.3,0A3.26,3.26,0,0,1,188.93,411.43Z" transform="translate(-31.12 -134.86)"/><path class="cls-23" d="M603.21,411.43a3.21,3.21,0,0,1-3.09-3.29,3.06,3.06,0,0,1,3.28-3,3,3,0,0,1,3,3.13A3.18,3.18,0,0,1,603.21,411.43Z" transform="translate(-31.12 -134.86)"/><path class="cls-23" d="M516.2,411.43a3.24,3.24,0,0,1-3.13-3.27,3.11,3.11,0,0,1,3.29-3.05,3.08,3.08,0,0,1,3,3.11A3.22,3.22,0,0,1,516.2,411.43Z" transform="translate(-31.12 -134.86)"/><path class="cls-23" d="M737.45,408.19a3.32,3.32,0,0,1-3.19,3.24,3.15,3.15,0,0,1-3.12-3.25,3,3,0,0,1,3-3.07A3.13,3.13,0,0,1,737.45,408.19Z" transform="translate(-31.12 -134.86)"/><path class="cls-23" d="M79.75,411.43a3.22,3.22,0,0,1-3.14-3.25,3,3,0,0,1,3.24-3.07,3.11,3.11,0,0,1,3.08,3.08A3.29,3.29,0,0,1,79.75,411.43Z" transform="translate(-31.12 -134.86)"/><path class="cls-23" d="M410.23,408.18a3.15,3.15,0,1,1-6.3,0,3.15,3.15,0,0,1,6.3,0Z" transform="translate(-31.12 -134.86)"/><path class="cls-23" d="M126.53,408.26a3.17,3.17,0,0,1-3.19,3.17,3.23,3.23,0,0,1-3.08-3.13,3.1,3.1,0,0,1,3.14-3.19A3,3,0,0,1,126.53,408.26Z" transform="translate(-31.12 -134.86)"/><path class="cls-23" d="M61,408.18a3.1,3.1,0,0,1-3.08,3.25,3.16,3.16,0,0,1-3.13-3.23,3,3,0,0,1,3-3.09A3,3,0,0,1,61,408.18Z" transform="translate(-31.12 -134.86)"/><path class="cls-23" d="M36.1,405.11a3.12,3.12,0,0,1,3.19,3.17A3.29,3.29,0,0,1,36,411.43a3.17,3.17,0,0,1-3-3.15A3,3,0,0,1,36.1,405.11Z" transform="translate(-31.12 -134.86)"/><path class="cls-23" d="M213.89,408.19a3.15,3.15,0,1,1-6.3,0,3.15,3.15,0,0,1,6.3,0Z" transform="translate(-31.12 -134.86)"/><path class="cls-25" d="M518.41,436.58a3.19,3.19,0,0,1-3.2,3.15,3.13,3.13,0,0,1-3.14-3.18,3.09,3.09,0,0,1,3.17-3.15A3.19,3.19,0,0,1,518.41,436.58Z" transform="translate(-31.12 -134.86)"/><path class="cls-23" d="M450.69,405.11a3.15,3.15,0,0,1,3.24,3.12,3.31,3.31,0,0,1-3.23,3.2,3.17,3.17,0,0,1-3.08-3.1A3,3,0,0,1,450.69,405.11Z" transform="translate(-31.12 -134.86)"/><path class="cls-23" d="M319.72,411.43a3.24,3.24,0,0,1-3.12-3.28,3.1,3.1,0,0,1,3.29-3,3,3,0,0,1,3,3.11A3.18,3.18,0,0,1,319.72,411.43Z" transform="translate(-31.12 -134.86)"/><path class="cls-23" d="M101.55,405.11a3.08,3.08,0,0,1,3.19,3.14,3.22,3.22,0,0,1-3.22,3.18,3.27,3.27,0,0,1-3.09-3.12A3.07,3.07,0,0,1,101.55,405.11Z" transform="translate(-31.12 -134.86)"/><path class="cls-23" d="M690.5,411.43a3.24,3.24,0,0,1-3-3.34,3.15,3.15,0,0,1,6.29.19A3.23,3.23,0,0,1,690.5,411.43Z" transform="translate(-31.12 -134.86)"/><path class="cls-24" d="M301.07,408.26a3.21,3.21,0,0,1-3.22,3.17,3.25,3.25,0,0,1-3.07-3.31,3.15,3.15,0,0,1,6.29.14Z" transform="translate(-31.12 -134.86)"/><path class="cls-26" d="M756.18,458a3,3,0,0,1,3.1,3.18,3.14,3.14,0,1,1-6.27-.09A3,3,0,0,1,756.18,458Z" transform="translate(-31.12 -134.86)"/><path class="cls-27" d="M360.06,354.3c0-3.44,0-3.44,3.35-3.43,3,0,3.48.57,2.45,3.38-.19.51.1.66.31.91.46.53.32,1.17.35,1.77s-.22.78-.77.79-.83-.2-.78-.76c.17-1.64-.87-1.74-2.11-1.76-.95,0-1.36.22-1.26,1.23.06.56.24,1.33-.8,1.28s-.69-.83-.73-1.37S360.06,355,360.06,354.3Z" transform="translate(-31.12 -134.86)"/><path class="cls-28" d="M377.51,362.79h2c.59,0,.7.35.7.84s-.31.6-.72.6h-2.41c-.4,0-.74.09-.73.6s.3.64.72.65a9.37,9.37,0,0,1,1.3,0c.59.09,1.59-.41,1.61.66,0,1.29-1.1.53-1.7.71a4.1,4.1,0,0,1-1.11,0c-.5,0-.81.17-.83.74s.4.66.86.66c.74,0,1.48,0,2.22,0,.51,0,.83.12.79.73,0,.42-.16.71-.63.71-1.43,0-2.85,0-4.27,0-.73,0-.63-.63-.64-1.11,0-1.3.09-2.61,0-3.89-.14-1.5.29-2.23,1.9-2a5.76,5.76,0,0,0,.93,0Z" transform="translate(-31.12 -134.86)"/><path class="cls-29" d="M369.85,362.79a7.7,7.7,0,0,1,2.57.24c.88.28,1.59,1,1.2,1.77a4.71,4.71,0,0,0-.05,3.63c.12.5.29,1.3-.76,1.31-.9,0-.78-.61-.75-1.14.06-1.56-1-1.31-2-1.43-1.29-.15-1.45.49-1.34,1.51.06.58,0,1.12-.84,1.07s-.7-.55-.7-1c0-1,0-2.1,0-3.15C367.14,362.79,367.14,362.79,369.85,362.79Z" transform="translate(-31.12 -134.86)"/><path class="cls-30" d="M353.35,354.24c0-3.37,0-3.37,3.39-3.37h1.11c.45,0,.9,0,.95.6s-.39.79-.95.78h-2c-.44,0-.88,0-.89.63s.35.71.83.7,1.24,0,1.86,0c.47,0,1-.09,1.08.66s-.56.64-1,.66a5.84,5.84,0,0,0-1.11,0c-.58.17-1.69-.58-1.63.77s1.13.51,1.72.67a5.62,5.62,0,0,0,1.48,0c.43,0,.71.15.68.64a.63.63,0,0,1-.7.67q-2,0-4.08,0c-.58,0-.69-.39-.69-.87C353.36,356,353.36,355.11,353.35,354.24Z" transform="translate(-31.12 -134.86)"/><path class="cls-27" d="M341.89,356.71c.38,1.24-.6.67-1.06.79a2.9,2.9,0,0,0-4.75-.22,1.1,1.1,0,0,1-1.32.38c-.77-.34-.11-.87,0-1.24.58-1.5,1.28-2.95,1.87-4.45a1.47,1.47,0,0,1,1.62-1.13c.85,0,1.38.21,1.69,1.06C340.57,353.52,341.25,355.11,341.89,356.71Z" transform="translate(-31.12 -134.86)"/><path class="cls-27" d="M391.21,362.8h1.48c.5,0,.58.34.59.75s-.18.67-.64.67c-.87,0-1.73,0-2.6,0-.4,0-.75.19-.76.63s.38.58.76.63c.62.06,1.23.1,1.85.18a1.73,1.73,0,0,1,1.71,1.41,1.89,1.89,0,0,1-1,2.2c-1.39.76-2.9.42-4.37.4-.49,0-.48-.46-.48-.83s.26-.53.6-.53c.62,0,1.24,0,1.85,0s1.47.28,1.52-.58c.07-1-1-.65-1.54-.82a3.32,3.32,0,0,0-.55,0c-1.17-.11-2-.55-2-1.92s.78-1.87,1.91-2.08a13.26,13.26,0,0,1,1.67-.11Z" transform="translate(-31.12 -134.86)"/><path class="cls-31" d="M383.35,369.74c-.37,0-.74,0-1.11,0-.58,0-.95-.14-.94-.82s.46-.61.89-.62H384c.54,0,1.28.11,1.27-.68s-.8-.6-1.3-.71-.87,0-1.29-.1a1.81,1.81,0,0,1-1.63-1.75,1.88,1.88,0,0,1,1.3-2,10.15,10.15,0,0,1,3.68-.23c.5,0,.54.38.56.77s-.26.63-.69.63h-2.22c-.47,0-.89.1-.87.69s.42.53.79.58a11.27,11.27,0,0,0,1.29.13c1.23,0,2,.5,2.08,1.83s-.78,2-2,2.23a10.2,10.2,0,0,1-1.66,0Z" transform="translate(-31.12 -134.86)"/><path class="cls-32" d="M367.61,354.15c0-.8,0-1.6,0-2.4,0-.59.19-.91.84-.9s.86.35.86.92c0,1.72,0,3.44,0,5.16a.72.72,0,0,1-.77.82c-.58,0-.94-.19-.93-.84C367.62,356,367.61,355.07,367.61,354.15Z" transform="translate(-31.12 -134.86)"/><path class="cls-33" d="M327.33,384.36l.37-.75a2.8,2.8,0,0,1,2.62.13c1.67,1.31,1.77,2.33.4,4.29l-.49.49c-.48-.07-1-.06-1.46-.13C326.63,388.1,325.94,386.13,327.33,384.36Z" transform="translate(-31.12 -134.86)"/><path class="cls-34" d="M327.33,384.36c-1,2.42-.39,3.45,2.1,3.8a3.18,3.18,0,0,1,.8.36,2.83,2.83,0,0,1-4-3.11C326.35,384.91,326.33,384.05,327.33,384.36Z" transform="translate(-31.12 -134.86)"/><path class="cls-35" d="M721.46,428.12c-.65-1.11-1.26-1.64-2.13-.15.44-.85-1.07-2.5.9-2.63C722.55,425.2,721.3,427,721.46,428.12Z" transform="translate(-31.12 -134.86)"/><path class="cls-36" d="M330.72,388c.66-1.46,1.24-2.91-.39-4.15-.1-.11-.13-.21-.08-.31s.07-.15.11-.15C332.39,384.76,332.53,386.62,330.72,388Z" transform="translate(-31.12 -134.86)"/><path class="cls-37" d="M716.63,427.12a2.53,2.53,0,0,1,.92-1.9c.25,1.12.63,2.08-.13,3-.25-.25-.24-.64-.49-.89A.7.7,0,0,1,716.63,427.12Z" transform="translate(-31.12 -134.86)"/><path class="cls-38" d="M715.16,428.23c-.73-.76-.24-1.67-.31-2.51a.34.34,0,0,1,.5-.32c.3.12.16.39.16.61A3.86,3.86,0,0,1,715.16,428.23Z" transform="translate(-31.12 -134.86)"/><path class="cls-39" d="M715.16,428.23c.12-.74-.25-1.55.35-2.22.28.36.55.72.83,1.07a.55.55,0,0,1-.47.47Z" transform="translate(-31.12 -134.86)"/><path class="cls-40" d="M330.36,383.42l0,.46a6.87,6.87,0,0,0-2.63-.27C328.53,382.72,329.44,383.07,330.36,383.42Z" transform="translate(-31.12 -134.86)"/><path class="cls-41" d="M148.91,242.51a.79.79,0,0,1,.61-1,2.65,2.65,0,0,1-.23,1.71C149.13,243,149.33,242.6,148.91,242.51Z" transform="translate(-31.12 -134.86)"/><path class="cls-42" d="M715.87,427.55l.47-.47a.3.3,0,0,0,.29,0H717c.3.38,0,.58-.23.81C716.07,428.73,716,428.09,715.87,427.55Z" transform="translate(-31.12 -134.86)"/><path class="cls-43" d="M716.76,427.93c.07-.27.15-.54.23-.81.8.13.21.78.43,1.13Z" transform="translate(-31.12 -134.86)"/><path class="cls-44" d="M323.64,246.56c-.24,9.73-3.12,18.35-11.1,24.49-14.31,11-35.46,4.8-42.52-12.32-5.06-12.24-2.35-26.25,6.92-34.54,8-7.14,17.3-9.28,27.49-6s16,10.78,18.43,21A28.66,28.66,0,0,1,323.64,246.56Z" transform="translate(-31.12 -134.86)"/><path class="cls-44" d="M226.19,238.36H173c1.31-9.44,10.41-21.47,25.43-22.13C214,215.55,223.9,226.74,226.19,238.36Z" transform="translate(-31.12 -134.86)"/><path class="cls-44" d="M486.33,214.51a26.12,26.12,0,0,1,26.23,24.16c.77,8.84-1,16.92-6.87,23.76-10.12,11.78-28.88,11.52-39.45-.46-11.5-13-8-35.29,6.95-44.07A24,24,0,0,1,486.33,214.51Z" transform="translate(-31.12 -134.86)"/><path class="cls-44" d="M396.6,214.45c10.78.48,18.44,5.77,23.18,15.34a29.64,29.64,0,0,1-6.56,34.76c-10.4,9.51-26.18,8.57-36-2.16-12.63-13.8-8.39-37.33,8.19-45.43A24.11,24.11,0,0,1,396.6,214.45Z" transform="translate(-31.12 -134.86)"/><path class="cls-44" d="M648.31,227.94c0,3.84,0,7.43,0,11,0,1.24-.22,1.8-1.6,1.68a30.32,30.32,0,0,0-4.47,0c-1.16.08-1.47-.31-1.46-1.45.06-5,0-10,0-15.08,0-7.44.06-14.89-.05-22.33,0-1.79.56-2.3,2.19-2.07a10.58,10.58,0,0,0,1.49,0c3.06,0,3.06,0,3.33,3.26a13,13,0,0,1,11.26-4.25,14.63,14.63,0,0,1,9.89,4.95,17.52,17.52,0,0,1-.06,22.69C663.57,232.4,655.94,233.06,648.31,227.94Z" transform="translate(-31.12 -134.86)"/><path class="cls-44" d="M705.74,227.85c-5.81,5-13.16,4.62-17.86-.83-2.07-2.4-2.65-5.29-2.69-8.3-.06-5.83,0-11.67,0-17.5,0-1.28.45-1.58,1.62-1.51a29.12,29.12,0,0,0,4.28,0c1.38-.12,1.63.46,1.62,1.7,0,5.45.05,10.91.12,16.37a8.67,8.67,0,0,0,1,3.75,5.22,5.22,0,0,0,4.71,3.09,5.39,5.39,0,0,0,5.31-2.73,10.18,10.18,0,0,0,1.33-5.16c0-5.09.1-10.18,0-15.26,0-1.38.32-1.9,1.75-1.76a21.28,21.28,0,0,0,3.91,0c1.43-.13,1.89.3,1.87,1.81-.09,7,0,14,0,21,0,2.23,0,4.47,0,6.7,0,.95-.26,1.35-1.26,1.28s-2,0-3,0C705.85,230.51,705.85,230.51,705.74,227.85Z" transform="translate(-31.12 -134.86)"/><path class="cls-44" d="M717.2,220.7a13.29,13.29,0,0,0,1.67,0,2.08,2.08,0,0,1,2.62,1.59,3.4,3.4,0,0,0,4.49,2.18,3,3,0,0,0,2.14-2.57,2.65,2.65,0,0,0-1.54-2.74,27.21,27.21,0,0,0-5-2c-5.26-1.78-7.76-5.4-7.1-10.29.6-4.49,4.44-7.75,9.68-8.23a10.09,10.09,0,0,1,10.24,7c.71,2.35.61,2.48-1.84,2.49-1,0-2.11,0-3.16,0s-1.94,0-2.44-1.3-1.88-1.54-3.18-1.22a2.33,2.33,0,0,0-1.9,2.23c-.11,1.39.79,2,1.87,2.45,1.5.59,3,1.06,4.57,1.57,5.23,1.77,7.61,4.83,7.28,9.41a11.13,11.13,0,0,1-9.08,10c-6.41,1.07-11.8-2.57-13-8.67-.33-1.63.06-2.16,1.67-1.95A15.55,15.55,0,0,0,717.2,220.7Z" transform="translate(-31.12 -134.86)"/><path class="cls-45" d="M674.74,209.89c0-6.25,0-12.51,0-18.77,0-1.16.22-1.7,1.52-1.59a23.53,23.53,0,0,0,4.28,0c1.45-.14,1.73.42,1.72,1.77,0,11.46,0,22.92,0,34.38,0,1.54.66,3.5-.29,4.5s-2.93.21-4.45.33c-.37,0-.75,0-1.12,0-1.35.21-1.64-.42-1.62-1.67C674.77,222.53,674.74,216.21,674.74,209.89Z" transform="translate(-31.12 -134.86)"/><path class="cls-44" d="M660.05,350.46a7.57,7.57,0,0,1,3.72-2.95c2.69-.77,4.33.21,4.93,2.92.08.36.19.71.31,1.21.85-.94,1.56-1.85,2.39-2.62,1.48-1.39,3.26-2.2,5.26-1.47s2.46,2.64,2.56,4.56c.19,3.59-1,7-1.8,10.38-1,4.35-2.21,8.64-3.12,13-.34,1.64-1,2.07-2.55,2-2.78-.13-2.78,0-2.15-2.67,1.34-5.65,2.69-11.31,4-17,.32-1.37.73-2.9-1-3.75-1.14-.58-2.62.36-3.64,2.18a16.94,16.94,0,0,0-1.5,4.38c-1.15,4.81-2.38,9.61-3.41,14.45-.38,1.82-1,2.59-3,2.4-2.31-.22-2.33-.05-1.8-2.31,1.3-5.47,2.61-10.95,3.88-16.43a11.22,11.22,0,0,0,.29-2.58c0-2-1.51-2.78-3.28-1.66a5.91,5.91,0,0,0-2.35,3.87c-1.39,5.58-2.72,11.18-4.09,16.77-.19.75-.07,2-.79,2.12a12.55,12.55,0,0,1-4.06.08c-.73-.08-.25-.8-.15-1.22q2.19-9.21,4.4-18.41c.65-2.71,1.41-5.39,1.93-8.12.26-1.37.87-1.78,2.12-1.59a2.3,2.3,0,0,0,.74,0c1.69-.26,2.42.27,1.73,2C659.47,350.47,659.5,350.72,660.05,350.46Z" transform="translate(-31.12 -134.86)"/><path class="cls-44" d="M688.43,350.35c.8.26,1-.29,1.33-.63,1.67-1.76,3.61-3.08,6.09-2.15s3.12,3.38,3.31,5.79c.37,4.6-.76,9-2.18,13.3-1.13,3.44-2.58,6.7-5.24,9.29-.09.08-.17.17-.26.26-3.54,3.34-6.73,2.73-8.62-1.77-.75,3.09-1.66,6.06-2.13,9.1-.34,2.16-1.28,2.58-3.28,2.54-1.8,0-2-.48-1.6-2.08Q680,367,684,350c.4-1.7,1-2.33,2.82-2.19C689.15,348,689.16,347.9,688.43,350.35Z" transform="translate(-31.12 -134.86)"/><path class="cls-44" d="M720.43,374.59c-1.42,1.32-2.52,2.59-4.07,3.28-3.1,1.38-5.63,0-6.08-3.36-1-7.29,3.22-13.39,10.37-14.92,1.91-.41,3.68-.89,4.11-3.13.16-.84.38-1.78-.45-2.42a2.76,2.76,0,0,0-2.64-.38,3,3,0,0,0-2.11,1.95c-.51,1.81-1.69,2.05-3.33,1.94-2.17-.14-2.17,0-1.47-2a15.61,15.61,0,0,1,2.94-5.32,8.12,8.12,0,0,1,6.18-2.93c4.4-.1,6.87,2.53,6,6.82-1.32,6.42-2.9,12.78-4.39,19.16a3.57,3.57,0,0,0-.18,2.19c.91,2-.25,2.08-1.69,2h-.75C720.33,377.44,720.33,377.44,720.43,374.59Z" transform="translate(-31.12 -134.86)"/><path class="cls-44" d="M630.14,369.28a32,32,0,0,1,6.22-18.16,9.1,9.1,0,0,1,7-4.08c3.48-.16,5.58,1.33,6.25,4.76,1.34,6.82-.43,13.13-3.5,19.17a18,18,0,0,1-3.32,4.68,8.66,8.66,0,0,1-6.83,2.79,5.15,5.15,0,0,1-5-3.66A15.55,15.55,0,0,1,630.14,369.28Z" transform="translate(-31.12 -134.86)"/><path class="cls-44" d="M628.44,366.76a20.87,20.87,0,0,1-6,9.89,7.05,7.05,0,0,1-5,1.79c-2.82-.07-4.54-1.35-5.15-4.13-1.05-4.77,0-9.36,1.37-13.9,1.19-4,2.83-7.8,5.93-10.78a7.81,7.81,0,0,1,4.56-2.3c3.81-.46,6.26,1.43,6.66,5.23a15.56,15.56,0,0,1-.06,3.34c-.3,2.68-.34,2.59-3,2.71-1.53.06-2.31-.18-2-2a2.18,2.18,0,0,0-1.28-2.62c-1.38-.51-2.43.22-3.25,1.21-2.16,2.62-2.81,5.87-3.56,9.06a15.51,15.51,0,0,0-.46,5.17c.11,1,.37,2,1.5,2.34a2.64,2.64,0,0,0,2.83-.89,5.87,5.87,0,0,0,1.48-2.56,1.91,1.91,0,0,1,2.38-1.61A28.12,28.12,0,0,0,628.44,366.76Z" transform="translate(-31.12 -134.86)"/><path class="cls-44" d="M708.17,351.2c1-.08,1.15-.78,1.53-1.23a9.07,9.07,0,0,1,1.84-1.82c.91-.62,2-1.24,2.93-.76s-.05,1.64-.1,2.5-.44,1.55-.56,2.34c-.27,1.84-.63,3.18-3.14,3.16-2,0-3,1.92-3.77,3.7-1.42,3.38-1.94,7-2.88,10.54-.54,2-1.1,4.07-1.44,6.14-.24,1.42-.89,1.74-2.23,1.7-3-.09-3,0-2.28-2.94,2-8.3,4-16.6,6-24.9.14-.59,0-1.57.82-1.67a18.41,18.41,0,0,1,3.71.05c.44,0,.24.63.17,1C708.62,349.67,708.4,350.36,708.17,351.2Z" transform="translate(-31.12 -134.86)"/><path class="cls-46" d="M660.05,350.46a1.25,1.25,0,0,1-.61.87,1,1,0,0,1,.19-1.3Z" transform="translate(-31.12 -134.86)"/><path class="cls-44" d="M593.64,350.89c1.13-4,2.3-7.92,3.28-11.86.33-1.33.91-1.6,2.16-1.58,3.81.06,3.83,0,2.81,3.74-3.16,11.44-6.35,22.88-9.46,34.34-.37,1.37-.9,2-2.36,1.81a27.65,27.65,0,0,0-3.42,0l.68-2.9c-.69,0-.88.64-1.23,1a9.2,9.2,0,0,1-3.3,2.35c-3.69,1.39-6.58,0-7.65-3.77a18.07,18.07,0,0,1,.29-9.54c1.35-5.26,3.19-10.3,7.15-14.25a12.52,12.52,0,0,1,2.48-1.93C588.9,346.06,591.59,346.87,593.64,350.89Z" transform="translate(-31.12 -134.86)"/><path class="cls-44" d="M565.12,364.79c-1.93,0-3.85,0-5.77,0-1,0-1.48.32-1.54,1.32,0,.68-.2,1.35-.22,2,0,1.49.24,2.91,1.77,3.59a3.19,3.19,0,0,0,4.16-1.08c1.65-2.69,4.1-1.88,6.39-2,.58,0,.73.17.58.78-.93,3.8-7,8.68-11.08,8.89-3.88.2-7.14-2.21-7.32-6.08-.37-8.23,2-15.67,7.66-21.79a9.88,9.88,0,0,1,8-3.35,5.72,5.72,0,0,1,5.48,4c1.19,3.36.68,6.72-.12,10.06-.89,3.66-.91,3.66-4.61,3.66Z" transform="translate(-31.12 -134.86)"/><path class="cls-17" d="M319.4,349.67a34.53,34.53,0,0,1-3,5.11c-1.93,3.1-3.91,6.17-5.82,9.28a2.34,2.34,0,0,1-2.26,1.24q-35,0-70,0c-1.39,0-1.68-.31-.9-1.53q4.23-6.66,8.39-13.38c.5-.82,1.22-.71,1.95-.71H319.4Z" transform="translate(-31.12 -134.86)"/><path class="cls-2" d="M181.29,338.93a27,27,0,0,1,43.64,28.69,26.78,26.78,0,0,1-25.4,18.27,26.36,26.36,0,0,1-18.15-6.81c-.32-1,.71-1.36.94-2.22-.61-.37-1.3-.15-1.93-.2a3.66,3.66,0,0,1-2.27-.67c-.77-.64-1.67-1.37-1.4-2.44s1.49-.88,2.36-.91c1.74-.07,3.48,0,5.21,0,1.24-.05,1.24-.08,2.06-1.29-1.54-.47-3.09-.17-4.6-.22-1.74-.06-3.47,0-5.21,0a2.46,2.46,0,0,1-2.31-1.27c-1-1.8-.55-2.68,1.5-2.72q5.11-.07,10.23,0a3.16,3.16,0,0,0,3.22-1.66c.77-.49,1.24.17,1.8.49,1.64,1,3.3,1.34,5,.07.43-.3.77-.79,1.4-.71,1.33,1.71,3,1.6,4.8.92,1.07,0,2.18.55,3.17-.28a1,1,0,0,1,1-.2c.94.78,1.89,1.05,2.83,0,.78-1.17.68-2.56,1-3.84a5.73,5.73,0,0,1,.86-2.55c.82-.38,1.33-.19,1.36.78,0,.73,0,1.47,0,2.21,0,3.59,1.58,4.81,5,3.87,1.1-.08,2.29.67,3.27-.39a6.36,6.36,0,0,0,.94-3.14c.47-2.6.88-5.21,1.31-7.81.1-.59.4-1.3-.14-1.75s-1.28-.1-1.86.28c-.92.4-.49,1.7-1.41,2.1-2.23-.77-4,.45-5.7,1.51a4,4,0,0,0-4.9-1.19,1.75,1.75,0,0,0-.63,1.25,9.38,9.38,0,0,1-.17,1c-.41.64.23,1.8-1,2-.57-.52-.46-1.23-.51-1.89-.16-2.16-1.08-3.09-3.24-3.11a4.74,4.74,0,0,0-3.42,1.08c-.44.4-.77.92-.49,1.46s.89.11,1.35.18c1,.15,2.33-.44,2.64,1.22-1.65.67-3.67.59-4.81,2.32-.71.33-.53,1.09-.82,1.64a1.9,1.9,0,0,1-.67.52c-2.4.71-3.78.32-4.69-1.31a5.6,5.6,0,0,1,1.4-6.37c1.28-.74,2.74.34,4-.37,1.26-1.95.89-2.79-1.39-2.94s-4.11,1.07-5.76,2.53a.91.91,0,0,1-.8-.1c-.4-.39-.5-1.06-1.13-1.24-4.31-.33-8.62,0-12.92-.14a5.5,5.5,0,0,1-2.54-.29c-.71-2,.08-3.26,2.2-3.33,3.35-.12,6.7,0,10.05-.07.71,0,1.93.45,2-.64.09-1.25-1.17-1.21-2.09-1.22-2.66,0-5.33,0-8,0-.86,0-2,.23-2.23-1.06a2.52,2.52,0,0,1,2.09-2.48c1.73-.26,3.47,0,5.2-.14.7-.05,1.92.51,2-.62s-1.09-1.18-2-1.24a16.4,16.4,0,0,1-3-.17c-.79-.19-1-.67-.55-1.36A4.34,4.34,0,0,1,181.29,338.93Z" transform="translate(-31.12 -134.86)"/><path class="cls-47" d="M189.51,365.41c-.21,2-1.5,2.25-3.26,2.2-4-.12-8.05,0-12.1,0,.45,2.78.59,2.9,3.12,2.91h10.15c-.4,1.94-1.24,2.94-3.3,2.78s-4.09,0-6.14-.05c-1,0-1.22.36-.67,1.18.72,1.07,1.52,1.91,3,1.73a30.26,30.26,0,0,1,3.45,0c-.58,1.36-1.78,1.94-2.4,3a28.33,28.33,0,0,1-14.14,6.57,26.8,26.8,0,0,1-30.62-22.27c-2.27-15.26,7.18-28.36,22.4-30.95,8.34-1.41,15.83.95,22.27,6.5l-2.58,2.95c1.54,0,2.81.11,4,0,1.74-.19,2.26,1.1,2.79,2.22.44.94-.52.72-1,.73-2.23,0-4.47,0-6.7,0-.48,0-1-.16-1.4.27-.51.61-1.16,1.35-.93,2.1s1.11.28,1.69.29c3,0,5.95,0,8.93,0a2.41,2.41,0,0,1,2.42,2.39c-.05.94-.81.56-1.26.57-3.41,0-6.83.13-10.23,0-2.12-.1-3.77.13-4.16,2.6-.73.88-2.09,0-2.78,1l-.24.43c-.45.61-.34,1.48-.93,2a.69.69,0,0,1-.65-.35,3.89,3.89,0,0,0-5.2,0c-.5.37-.89.85-1.38,1.25a1.2,1.2,0,0,1-.73.28,4.66,4.66,0,0,0-5.54-2.3,2.86,2.86,0,0,0-1.92,1.24c-.55.72-.64,1.25.52,1.24a12.39,12.39,0,0,1,2,0c.71.12,1.52.2,1.32,1.29-1.88.51-3.9.73-5.18,2.52-.18.25-.57.17-.85,0-.76-1.21-.14-2.42,0-3.62s.35-2.45.62-3.66-.15-1.63-1.33-1.56a3.82,3.82,0,0,0-2.47.6c-1,1-1,2.31-1.54,3.44-.27.56-.17,1.54-1.26,1.37a4.61,4.61,0,0,1-.39-2.69c-.06-2.82-1.16-3.43-3.75-2.07a2.05,2.05,0,0,0-.87,1.54c-.49,3.22-1.09,6.43-1.57,9.66-.07.51-.5,1.16.16,1.5a1.36,1.36,0,0,0,1.82-.37,7.49,7.49,0,0,0,.83-2.8c.15-.56,0-1.29.86-1.44.9,1,.45,2.2.54,3.32.1,1.31.48,1.9,1.78,1,1.24-1.05,1-2.92,2.2-4a.53.53,0,0,1,.51.15,2.19,2.19,0,0,1,.32,1.34,6.62,6.62,0,0,1-.13,1.09c-.1.58-.5,1.29.13,1.69a1.54,1.54,0,0,0,1.87-.22c.49-.35.57-1,1-1.39.35-.11.55.12.75.36,1.81,2.15,2,2.21,4.58,1.11a1.22,1.22,0,0,1,.5-.08,2.74,2.74,0,0,0,2.84,0,1.08,1.08,0,0,1,.5.09,5.77,5.77,0,0,0,6.5-.58,1.39,1.39,0,0,1,1.14-.6c.61.25.75.93,1.2,1.33.92.81,2.19.7,3.4-.31.53-.6.42-1.5,1-2.08.74-.06.83.63,1.16,1A5,5,0,0,0,181,366a1.36,1.36,0,0,1,1-.37,1.55,1.55,0,0,1,.43.29c1,.7,2,.79,2.79-.33.63-1.39.5-2.92.93-4.34.24-.81.21-1.77,1.22-2.14.7-.09,1.35.16,1.37.85C188.76,361.8,189.55,363.55,189.51,365.41Z" transform="translate(-31.12 -134.86)"/><path class="cls-48" d="M223.45,374.85c-1-.06-.89-.78-.64-1.3s.86-.62,1.38-.15A1.15,1.15,0,0,1,223.45,374.85Z" transform="translate(-31.12 -134.86)"/><path class="cls-49" d="M223.45,374.85l.74-1.45C224.88,374.37,224.45,374.76,223.45,374.85Z" transform="translate(-31.12 -134.86)"/><path class="cls-44" d="M41.28,370.57a3.6,3.6,0,0,0,.24-2.17c0-12.29,0-24.57,0-36.86,0-1.55.42-2,2-2q42.86.06,85.69,0c1.46,0,1.87.37,1.86,1.85q-.07,20.74,0,41.5c0,1.68-.4,2.18-2.14,2.17q-42.19-.08-84.38,0C42.16,374.49,41.37,372.78,41.28,370.57Z" transform="translate(-31.12 -134.86)"/><path class="cls-44" d="M660.48,448.38c0,3.25-.17,5.53-1.05,7.69-1.15,2.84-3.37,3.94-6.29,4s-5.52-.77-6.64-3.71a19.2,19.2,0,0,1-.12-13.78c1.17-3.17,3.89-4.06,7.08-3.92a6.35,6.35,0,0,1,6.12,4.29A15.13,15.13,0,0,1,660.48,448.38Z" transform="translate(-31.12 -134.86)"/><path class="cls-44" d="M568,459.33a16.61,16.61,0,0,1-4-.49,3.48,3.48,0,0,1-2.67-3.58,3.71,3.71,0,0,1,2.53-3.91,12,12,0,0,1,4-.56,26.7,26.7,0,0,1,3.9,0c1.18.17,2.81-.88,3.49.65.81,1.83-.36,5.47-1.73,6.48C572,459.17,570,459.22,568,459.33Z" transform="translate(-31.12 -134.86)"/><path class="cls-44" d="M681.52,450.9h2.88c2.76,0,2.76,0,2.63,2.83-.16,3.42-1.66,5-5,5.46a18.87,18.87,0,0,1-5.36-.08c-2.29-.36-3.43-1.58-3.54-3.61-.13-2.34.85-3.67,3.18-4.32C678.09,450.66,680,451,681.52,450.9Z" transform="translate(-31.12 -134.86)"/><path class="cls-44" d="M436.81,330.17h33.72c4.16,0,5.83,1.68,5.83,5.88v46c0,3.86-1.8,5.65-5.7,5.65h-67.8c-4,0-5.78-1.81-5.78-5.8q0-22.89,0-45.78c0-4.22,1.73-5.92,6-5.92Z" transform="translate(-31.12 -134.86)"/><path class="cls-50" d="M351.07,364.21c1.88,0,3.85,1.09,3.84,2.05s-2.07,2.17-3.69,2c-.75-.07-2.21.84-2.18-.68s1.48-.41,2.24-.7c.45-.17,1.26.27,1.29-.61s-.86-.56-1.37-.75c-.74-.27-2.24.76-2.15-.78C349.11,363.59,350.5,364.56,351.07,364.21Z" transform="translate(-31.12 -134.86)"/><path class="cls-51" d="M359.66,363.58v5.36C356.72,366.43,356.72,366.43,359.66,363.58Z" transform="translate(-31.12 -134.86)"/><path class="cls-52" d="M362.74,364.21c.86,0,1.86-.14,1.79.94s-1.12.94-1.9.92c-.59,0-1.38.34-1.42-.86C361.17,363.71,362.25,364.41,362.74,364.21Z" transform="translate(-31.12 -134.86)"/><path class="cls-53" d="M376.57,354.78a6.51,6.51,0,0,1,1.28-2.61l1,2.48A4.26,4.26,0,0,1,376.57,354.78Z" transform="translate(-31.12 -134.86)"/><path class="cls-52" d="M363,352.23c.67.12,1.73-.26,1.76.79s-1,.84-1.7.81-1.44.45-1.49-.75S362.47,352.37,363,352.23Z" transform="translate(-31.12 -134.86)"/><path class="cls-54" d="M370.06,365.94c-.64-.07-1.35.21-1.39-.82-.05-1.35.92-.87,1.53-.89s1.77-.31,1.72.79S370.71,365.76,370.06,365.94Z" transform="translate(-31.12 -134.86)"/><path class="cls-55" d="M337.26,354.82a5.88,5.88,0,0,1,1.06-2.68c.49.88,1.17,1.7.85,2.5C339,355.19,338,354.81,337.26,354.82Z" transform="translate(-31.12 -134.86)"/><path class="cls-56" d="M330.15,387.28c-.65-1-1.18-1.85-1.88.14-.18-1.19-.5-2.09.09-2.84.27-.34,1-.23,1.38,0C330.76,385.25,330.05,386.27,330.15,387.28Z" transform="translate(-31.12 -134.86)"/><path class="cls-44" d="M719.35,426.58a1.39,1.39,0,0,1,1.72-.42C720.76,427,720.22,426.56,719.35,426.58Z" transform="translate(-31.12 -134.86)"/><path class="cls-3" d="M656.76,205.57c4.93,0,8.86,4.21,8.86,9.5s-3.94,9.53-8.85,9.55-9-4.25-9-9.61S651.79,205.56,656.76,205.57Z" transform="translate(-31.12 -134.86)"/><path class="cls-4" d="M693.91,358.36a24,24,0,0,1-3,10.52,6.34,6.34,0,0,1-1.91,2.24c-1.85,1.23-3.49.59-4.1-1.57a7.13,7.13,0,0,1-.14-2.94,28.73,28.73,0,0,1,2-7.67,16.51,16.51,0,0,1,1.16-2.3c1.2-1.94,2.84-2.94,4.17-2.42C694,355,693.77,356.72,693.91,358.36Z" transform="translate(-31.12 -134.86)"/><path class="cls-57" d="M722.67,365.08c-.69,2.57-1.23,5.41-4,7-.8.46-1.68,1-2.59.34s-.92-1.61-.71-2.65c.69-3.46,3-5.5,6.68-5.84C722.63,363.89,722.72,364,722.67,365.08Z" transform="translate(-31.12 -134.86)"/><path class="cls-4" d="M645,357.87a26.72,26.72,0,0,1-2.65,10.24,10.73,10.73,0,0,1-1.66,2.44,3.32,3.32,0,0,1-3.48,1.26,2.79,2.79,0,0,1-1.88-2.92,21.84,21.84,0,0,1,3.49-13c1.29-2,2.93-2.66,4.36-2.06C645,354.57,644.76,356.36,645,357.87Z" transform="translate(-31.12 -134.86)"/><path class="cls-15" d="M580.67,367.07a22.28,22.28,0,0,1,3.73-10.64,7.51,7.51,0,0,1,1.39-1.48,3.52,3.52,0,0,1,3.65-.75,3,3,0,0,1,1.75,3A19.07,19.07,0,0,1,586.93,370a3.87,3.87,0,0,1-4.47,1.5C580.69,370.8,580.68,369.13,580.67,367.07Z" transform="translate(-31.12 -134.86)"/><path class="cls-14" d="M563.84,359.58h-2c-2.33,0-2.36,0-1.2-2.15a8,8,0,0,1,3-3.47c2.17-1.19,4.08-.23,4.49,2.23.48,2.87.06,3.39-2.76,3.39Z" transform="translate(-31.12 -134.86)"/><path class="cls-58" d="M249.85,359.32c1.65-2.62,3.07-4.69,4.29-6.87a2.44,2.44,0,0,1,2.57-1.29c.84,0,1.05.3,1,1.09,0,3.46,0,6.93,0,10.4,0,.9-.31,1.16-1.19,1.16s-1.22-.23-1.2-1.14a50.82,50.82,0,0,0-.31-7.54q-2,3.33-4.07,6.66c-.29.47-.58.95-.86,1.43-.55.92-1.45.6-2.18.51s-.5-.88-.51-1.38a49,49,0,0,0-.39-7.05c-.79,1.24-1.57,2.49-2.35,3.73s-1.48,2.16-2.05,3.31c-.66,1.35-1.62,1.72-3.19,1.28,2.5-4,4.94-8,7.44-12,.58-.91,1.62-.45,2.42-.4,1,.05.5,1,.52,1.47C249.88,354.72,249.85,356.73,249.85,359.32Z" transform="translate(-31.12 -134.86)"/><path class="cls-59" d="M281,359.58c-1.53,0-2.76,0-4,0-.82,0-1.07-.27-1.07-1.07s.16-1.25,1.12-1.22c1.92.06,3.84.09,5.76,0,1.24-.06,1.47.38,1.24,1.51a6.68,6.68,0,0,1-7.7,5.09,6.48,6.48,0,0,1-5.59-6.94A6.61,6.61,0,0,1,277.6,351a6.42,6.42,0,0,1,5.88,3.87c-1.34.05-2.41.42-3.53-.57a4,4,0,0,0-5.89.54,4.32,4.32,0,0,0,.69,6C276.65,362.35,279.08,362,281,359.58Z" transform="translate(-31.12 -134.86)"/><path class="cls-58" d="M292.87,359.23c0-2.27,0-4.55,0-6.82,0-1,.31-1.24,1.27-1.26s1.21.4,1.2,1.3c0,3.22,0,6.44,0,9.66,0,.57.49,1.54-.59,1.63-.91.09-1.93.39-2.58-.84-1.2-2.3-2.56-4.52-3.86-6.77-.14-.24-.31-.48-.77-1.18,0,2.76,0,5,0,7.26,0,.75.3,1.6-1.08,1.62s-1.21-.85-1.21-1.7c0-3.09,0-6.19,0-9.29,0-.55-.53-1.54.58-1.61.9-.07,1.91-.41,2.55.85,1.26,2.46,2.71,4.82,4.09,7.23Z" transform="translate(-31.12 -134.86)"/><path class="cls-58" d="M308.74,363.59c-1.72.53-2.95.28-3.3-1.56s-1.65-1.48-2.86-1.48-2.43-.24-2.73,1.43c-.33,1.89-1.58,2.1-3.33,1.64,1.65-3.95,3.26-7.89,4.94-11.8a1.32,1.32,0,0,1,2.33,0C305.48,355.71,307.09,359.65,308.74,363.59Z" transform="translate(-31.12 -134.86)"/><path class="cls-58" d="M271.12,363.6c-2,.59-3.05,0-3.37-1.73-.26-1.47-1.32-1.37-2.39-1.31s-2.74-.51-3.12,1.38-1.56,2.13-3.33,1.68c1.64-4,3.28-7.88,4.89-11.81.24-.58.64-.63,1.17-.63a1.15,1.15,0,0,1,1.29.77C267.84,355.83,269.48,359.69,271.12,363.6Z" transform="translate(-31.12 -134.86)"/><path class="cls-60" d="M314.69,351.59c1.45,1.08.39,1.81-.36,2.59-.51,0-1,.38-1.51,0h0a1.16,1.16,0,0,1,.26-1.14,1,1,0,0,0,.69-1.21.71.71,0,0,1,.26-.41A.62.62,0,0,1,314.69,351.59Z" transform="translate(-31.12 -134.86)"/><path class="cls-61" d="M313.93,351.58v.35a2.84,2.84,0,0,1-.73,1.08l-.41,1.17c-1-1-1.06-2,.09-3A.88.88,0,0,1,313.93,351.58Z" transform="translate(-31.12 -134.86)"/><path class="cls-62" d="M313.93,351.58l-1.05-.39c.8-.79,1.34-.34,1.81.4Z" transform="translate(-31.12 -134.86)"/><path class="cls-63" d="M312.82,354.17c.5.19,1-.33,1.51,0C313.82,354.64,313.32,354.83,312.82,354.17Z" transform="translate(-31.12 -134.86)"/><path class="cls-44" d="M220.47,353.18c.59-1.38,1.83-.9,2.72-.72s.27,1.16.19,1.71c-.51,3.54-1.11,7.06-1.71,10.58-.09.53.12,1.33-.83,1.39-1.15.9-2.39-.48-3.56.14-3.22.67-5-.75-5.06-4.06a15.89,15.89,0,0,1,.27-3.51c.28-.59.3-1.36,1.11-1.59,2.34-2.63,3.14-2.88,5.78-1.79.68.1.63-.4.67-.82S220,353.52,220.47,353.18Z" transform="translate(-31.12 -134.86)"/><path class="cls-45" d="M197.31,363.12l.18-.38c.74-.3,0-1.18.62-1.55,1.23-1.91,3.14-2.29,5.21-2.32.5-1-.37-1-.9-1.12a6.59,6.59,0,0,0-1.64.15c-2,.14-2,.15-1.28-1.91,1-1.27,3.5-1.76,5.55-1.07,1.62.55,2.1,1.78,2,3.35,0,.62,0,1.24-.07,1.86,0,.08,0,.16,0,.25.08.68,0,1.36.05,2.05a5.6,5.6,0,0,1-.14,1.29,10.66,10.66,0,0,1-.52,1.75,1.56,1.56,0,0,0-.2.16l-.85.51c-1.12.76-2.33-.36-3.47.15-2.64.53-3.38.2-4.59-2A1.5,1.5,0,0,1,197.31,363.12Z" transform="translate(-31.12 -134.86)"/><path class="cls-1" d="M197.31,363.12l.4.65c-.51.47.28,1.35-.54,1.73a1.24,1.24,0,0,1-.94.67,4.81,4.81,0,0,1-6.68-2.23c-1.24-2.48-.72-7.16,1-9.05a6.7,6.7,0,0,1,7.82-2.37c1,.47.91,2.1-.27,3.19-1.36.12-2.78-.52-4.08.34-1.8,1.45-1.84,3.44-1.45,5.4a2.43,2.43,0,0,0,2.92,2C196.1,363.35,196.7,363.22,197.31,363.12Z" transform="translate(-31.12 -134.86)"/><path class="cls-1" d="M213.6,357.12l-.51,1.12c-.54.56-1.34.67-1.93,1.13-.38,1.92-.77,3.83-1.12,5.75-.09.51-.13,1-.78,1a2.46,2.46,0,0,1-2.27.08c-.6-2,0-3.86.35-5.76a10,10,0,0,0,.23-1.44c0-.59.44-1.11.39-1.72a6.51,6.51,0,0,1,.49-1.61c.26-1.2,1.24-.79,1.92-.74.9.06,1.72.59,2.67,0,.4-.26.81.09.56.69S213.11,356.61,213.6,357.12Z" transform="translate(-31.12 -134.86)"/><path class="cls-64" d="M190.55,354.89a14.73,14.73,0,0,0-1.24,5.32c0,4.62,2.39,6.69,6.92,6-1,1.29-3.67,1.45-5.43.28-.45-.3-.86-.69-1.29-1a8,8,0,0,1-1.13-5c.08-.88-.2-1.29-1.13-1.07-.18-.19-.3-.51-.11-.65,1.26-1,1.49-2.6,2.48-3.73l.25-.09Z" transform="translate(-31.12 -134.86)"/><path class="cls-65" d="M211.16,359.37a1.49,1.49,0,0,1,1.93-1.13,10.61,10.61,0,0,0-.53,3.83c.18,3,1.58,4.19,4.88,4.12v.11c-2.45,1.66-5.12.49-5.58-2.49a9.55,9.55,0,0,1,.1-3.69C212.18,359.23,211.62,359.42,211.16,359.37Z" transform="translate(-31.12 -134.86)"/><path class="cls-66" d="M169.82,354.09c-.15-.79.24-1.07,1-1s1.43,0,2.14,0c4.86,0,9.73,0,14.6.09.64,0,1.36-.25,1.93.32l-.27.23a5.54,5.54,0,0,1-2.55.32c-4.38,0-8.76,0-13.14,0A32.42,32.42,0,0,0,169.82,354.09Z" transform="translate(-31.12 -134.86)"/><path class="cls-67" d="M199.5,356l-.08,1.64c1.35,0,2.59-.54,3.88-.23.53.13.95.35.92,1s-.4.69-.9.52c-.86-1.08-2-.47-3.07-.56-.56-.05-1.45.75-1.57,0S198.27,356.41,199.5,356Z" transform="translate(-31.12 -134.86)"/><path class="cls-68" d="M197.17,365.5c.16-.59-.13-1.31.54-1.73.73,2.19,1.5,2.59,4.45,2.35.1.06.14.12.1.18s-.06.09-.1.09C199.93,367.72,198.65,367.49,197.17,365.5Z" transform="translate(-31.12 -134.86)"/><path class="cls-69" d="M207.77,358.66,207,366c-.47.16-.52-.15-.56-.49a5.37,5.37,0,0,1,.14-1.87l0-1.17c.47-.75-.05-1.66.37-2.41v0c.64-.66.07-1.67.67-2.34A.59.59,0,0,1,207.77,358.66Z" transform="translate(-31.12 -134.86)"/><path class="cls-70" d="M194,356.05c1.25-1.41,2.65-1.08,4.08-.34-.06.72-.43,1-1.08.67A6.51,6.51,0,0,0,194,356.05Z" transform="translate(-31.12 -134.86)"/><path class="cls-71" d="M202.16,366.39v-.27c1.08-1.27,2.15.37,3.22,0C204.42,367.68,203.28,366.84,202.16,366.39Z" transform="translate(-31.12 -134.86)"/><path class="cls-72" d="M224.45,365.11c-.21.41-.19,1-.89,1a.93.93,0,0,1,.09-1.85A.79.79,0,0,1,224.45,365.11Z" transform="translate(-31.12 -134.86)"/><path class="cls-73" d="M217.44,366.3v-.11c1.12-1.17,2.27.33,3.4-.05C219.78,367.67,218.61,366.94,217.44,366.3Z" transform="translate(-31.12 -134.86)"/><path class="cls-74" d="M206.62,365.71l.4.33,2.24.1c-.43,1.51-1.62.59-2.43.7s-.43-.78-.6-1.21l.05.08C206.39,365.54,206.51,365.54,206.62,365.71Z" transform="translate(-31.12 -134.86)"/><path class="cls-75" d="M220.47,353.18a12,12,0,0,1-.19,2.17c-.23.88-.6.48-.9,0C220,354.73,219.17,353.42,220.47,353.18Z" transform="translate(-31.12 -134.86)"/><path class="cls-76" d="M208.45,355.69a2,2,0,0,1-.25,1.55c-.25-.05-.28-.29-.4-.45C207.7,356.23,207.83,355.82,208.45,355.69Z" transform="translate(-31.12 -134.86)"/><path class="cls-66" d="M189.47,353.45c.55.36.28,1,.4,1.45v0a1,1,0,0,1-1,.12c-.44-.78.33-1.1.62-1.59Z" transform="translate(-31.12 -134.86)"/><path class="cls-8" d="M207.8,356.79l.4.45c-.11.48.19,1.09-.43,1.42,0-.29-.07-.58-.1-.87S207.76,357.12,207.8,356.79Z" transform="translate(-31.12 -134.86)"/><path class="cls-77" d="M198.11,361.19c-.11.55.12,1.25-.62,1.55C197.83,362.27,197.18,361.42,198.11,361.19Z" transform="translate(-31.12 -134.86)"/><path class="cls-45" d="M142.51,361.57c-.24,1.18-.5,2.35-.7,3.53-.09.5-.16,1-.77,1-2.22.59-2.49.36-2.23-1.84.4-3.35,1.17-6.64,1.56-10a2.51,2.51,0,0,1,.5-1c.87-2,2.57-.72,3.85-.86,1-.11.72,1.06.74,1.74.06,1.36.06,2.72.09,4.07a.81.81,0,0,1,.17.66c.8-1.85,1.12-3.9,2.1-5.71.57-.67,4-1.25,4.72-.8.51.33.16.78.12,1.15-.29,2.74-1.07,5.42-1.18,8.19a.81.81,0,0,1,.15.48c-.14.83.08,1.76-.71,2.39-.33.48.12,1.45-.91,1.51-2.22.62-2.66.28-2.43-1.84a8.43,8.43,0,0,0,.19-1.5,8.47,8.47,0,0,1,0-1.13,10.75,10.75,0,0,0,.42-2.09c.07-.2.18-.38.24-.59s0-.35,0-.1-.24,0-.06.14a4.4,4.4,0,0,0-.4,1.49,2.58,2.58,0,0,1-.92,1.48c-.73,1.34-.67,3.05-2,4.13-1.31.65-1.88,0-1.95-1.22-.08-1.59-.31-3.17-.3-4.66C142.86,360.64,143,361.21,142.51,361.57Z" transform="translate(-31.12 -134.86)"/><path class="cls-1" d="M182,365.68l-.68.43c-4.24,1.54-8.66,0-7.94-6.53.58-2.6,1.63-4.79,4.57-5.36a4.41,4.41,0,0,1,5.32,3.31,26.34,26.34,0,0,1,0,2.81,2.16,2.16,0,0,1-.25.9,1.65,1.65,0,0,1-.94.72c-1.41.41-2.94-.22-4.32.44.71,1.11,1.73.86,2.76.71.68-.1,1.41-.62,2.05.13C182.56,364.1,182.73,365,182,365.68Z" transform="translate(-31.12 -134.86)"/><path class="cls-45" d="M151.5,361.87l0-.11a6.34,6.34,0,0,1,5.86-2.89c.5-1.3-.57-1.11-1.19-1.13s-1.33.13-2,.16c-1.3.07-1.32-.54-.83-1.46.28-2,2-1.55,3.18-1.74,2.51-.41,3.79.45,4.63,2.79.77,1,0,2,.16,3-.31,1.39-.36,2.83-.7,4.22-.14.57,0,1.32-.89,1.43l-.39,0c-1,.85-2-.31-3-.06l0,0C152.76,367.35,151.5,366.25,151.5,361.87Z" transform="translate(-31.12 -134.86)"/><path class="cls-1" d="M161.52,357.19c1.39-2.55,3.68-2.72,6.21-2.43.9.11.91.61.89,1.25s.17,1.57-.85,1.85c-.69.3-1.57-.21-2.15.52.8,1,2.37,1.29,2.65,2.79a5.34,5.34,0,0,1,.32,1.31c-.17.91-.05,1.94-1.06,2.48l-.83.75c-1.65,1.16-3.51,1-5.35.82-1-.08-1.18-.76-1.1-1.59.09-1.5.9-2,2.34-1.74a2.39,2.39,0,0,0,1.45,0c.83-.78-.14-1-.48-1.16C161.67,360.89,160.86,359.37,161.52,357.19Z" transform="translate(-31.12 -134.86)"/><path class="cls-1" d="M169.82,354.09c.85-1.44,2.13-.76,3.3-.67,1.14,1.36,2.15,2.73.62,4.45-.46.26-1.06.37-1.12,1.06s-.14,1.33-.34,2a2,2,0,0,0,1,2.59.72.72,0,0,1,.06.52c-.46.67.16,1.84-1,2.17a2.57,2.57,0,0,1-3.1,0c-1-.7-1-1.73-.88-2.8a4.52,4.52,0,0,0,.12-1.1c-.52-2.87.54-5.49,1.36-8.14Z" transform="translate(-31.12 -134.86)"/><path class="cls-1" d="M188.77,354.83l1.1.1a11.57,11.57,0,0,1-2.62,4.44c-.76,1.56-.79,3.29-1.14,4.95-.13.66.12,1.54-.85,1.82-2.46.67-2.89.32-2.58-2.16a43,43,0,0,0,.72-6.39C183.84,354.28,184.91,353.73,188.77,354.83Z" transform="translate(-31.12 -134.86)"/><path class="cls-78" d="M173.32,364l-.21-.54c-.87-1.9-.67-3.06.72-4.12,0,.24,0,.49,0,.73-.08,5.15,1.54,6.62,6.69,6.05a6.06,6.06,0,0,1,.74,0c-1.5,1.81-5.59,1.44-7.21-.67A9.46,9.46,0,0,1,173.32,364Z" transform="translate(-31.12 -134.86)"/><path class="cls-79" d="M140.87,353.32c-.57,3.52-1,7.08-1.75,10.55-.45,2,.12,2.49,1.92,2.27-.51,1.44-1.71.73-2.52.64s-.4-1-.32-1.55q.84-5.31,1.78-10.6C140.07,354.11,139.85,353.26,140.87,353.32Z" transform="translate(-31.12 -134.86)"/><path class="cls-80" d="M142.51,361.57a11.44,11.44,0,0,1,.46-3.19l.55,0c0,2,.09,3.94,0,5.91-.09,1.34.32,1.95,1.68,1.82-.22,1.13-1.11.78-1.76.72-.86-.07-.73-.85-.76-1.43C142.58,364.14,142.55,362.85,142.51,361.57Z" transform="translate(-31.12 -134.86)"/><path class="cls-81" d="M151.5,361.87a2,2,0,0,1,.3.62c.35,3.59.85,4,4.55,3.57-2.23,2-4.28,1.48-5.43-1.43A6.9,6.9,0,0,1,151.5,361.87Z" transform="translate(-31.12 -134.86)"/><path class="cls-82" d="M183.85,357.5c.32,2.87-.82,5.57-.93,8.49l2.34.15a1.94,1.94,0,0,1-3.19,0,21.17,21.17,0,0,0,.35-3.38,2.07,2.07,0,0,1,.3-1.43l.12-.83c.3-.57,0-1.19.18-1.78C183.25,358.25,183.06,357.53,183.85,357.5Z" transform="translate(-31.12 -134.86)"/><path class="cls-83" d="M161.52,357.19c-.1,2.24.68,3.88,2.91,4.75.82.32,1.42,1,0,1.57-1.65-.52-3.22-1.13-3.61-3.11.09-1,.19-1.94.28-2.91Z" transform="translate(-31.12 -134.86)"/><path class="cls-84" d="M167.94,361.16a3.86,3.86,0,0,0-1.83-1.76c-.49-.27-1.27-.28-1.24-1.14.78-.72,1.92,0,2.72-.7,1.12,0,.5-1.16,1-1.55l.27.39A6.92,6.92,0,0,1,167.94,361.16Z" transform="translate(-31.12 -134.86)"/><path class="cls-85" d="M160.28,364.54a1.66,1.66,0,0,0,1.9,1.65,12.75,12.75,0,0,0,4.52-.48c-1.41,1.44-5.09,2-6.77,1-.15-.09-.16-.42-.23-.63.55-.4.16-1.11.52-1.58Z" transform="translate(-31.12 -134.86)"/><path class="cls-86" d="M168.56,362.34c-.19,3.57.4,4.17,3.74,3.83-1.59,1.93-3.79,1.37-4.77-1.21l.76-2.61C168.38,362.18,168.47,362.18,168.56,362.34Z" transform="translate(-31.12 -134.86)"/><path class="cls-87" d="M153.32,356.44c0,.76-.19,1.5,1.1,1.12a5,5,0,0,1,3.1-.06.81.81,0,0,1,.65,1c-.07.5-.43.51-.83.41-.92-1.13-2.15-.46-3.26-.57-.48,0-1.17.69-1.4-.06C152.51,357.68,152.26,356.73,153.32,356.44Z" transform="translate(-31.12 -134.86)"/><path class="cls-88" d="M168.56,362.34h-.27a1.14,1.14,0,0,1-.35-1.19,20.82,20.82,0,0,0,.95-4.76c.26-.76,0-1.75.91-2.23C169.38,356.89,169,359.62,168.56,362.34Z" transform="translate(-31.12 -134.86)"/><path class="cls-89" d="M147.8,363.91c-.55,2,.56,2.39,2.21,2.23-.5,1.44-1.71.73-2.52.64-1-.1-.38-1.1-.42-1.69a5.88,5.88,0,0,1,.37-1.6C147.78,363.45,148,363.5,147.8,363.91Z" transform="translate(-31.12 -134.86)"/><path class="cls-90" d="M147.82,353.22c-.66,2.17-1.32,4.33-2,6.62a1.71,1.71,0,0,1-.26-1.57c.46-1.26.93-2.52,1.4-3.78C147.13,354,147.12,353.36,147.82,353.22Z" transform="translate(-31.12 -134.86)"/><path class="cls-91" d="M156.32,366.08c1-1.43,2,.74,3,.06C158.28,367.52,157.29,367.05,156.32,366.08Z" transform="translate(-31.12 -134.86)"/><path class="cls-92" d="M182.7,362.73a11.74,11.74,0,0,1-.63,3.37l-.09-.42c.13-.85.26-1.69.38-2.53C182.25,362.83,182.42,362.73,182.7,362.73Z" transform="translate(-31.12 -134.86)"/><path class="cls-93" d="M147.8,363.91l-.36-.42.07-1.47a.26.26,0,0,1,.39,0,2.62,2.62,0,0,0,.16.67A1.45,1.45,0,0,1,147.8,363.91Z" transform="translate(-31.12 -134.86)"/><path class="cls-94" d="M147.75,362a2.1,2.1,0,0,1-.24.06l-.39,0a3.5,3.5,0,0,1,.62-1.62.84.84,0,0,1,.32.48A1.42,1.42,0,0,1,147.75,362Z" transform="translate(-31.12 -134.86)"/><path class="cls-9" d="M102.23,365l6.9-16.8c1-2.4,2-4.8,3-7.2a3.38,3.38,0,0,1,3.45-2.3c1.36,0,2.73.07,4.09,0,1-.06,1.43.31,1.63,1.28q2.39,11.73,4.84,23.43c.29,1.35-.11,1.79-1.43,1.62a11.62,11.62,0,0,0-1.67,0c-2.87,0-3,0-3.49-2.76-.21-1.09-.72-1.24-1.63-1.23-1.86,0-3.73.11-5.58,0-1.24-.08-1.9.41-2,1.54-.3,2.19-1.55,2.77-3.6,2.51A35.89,35.89,0,0,0,102.23,365Z" transform="translate(-31.12 -134.86)"/><path class="cls-9" d="M90.9,365.39a20,20,0,0,1-6.11-.91c-.42-.13-1.15-.15-1.07-.82a44.16,44.16,0,0,1,.81-5.13c.17-.7.83-.1,1.22.07a14,14,0,0,0,6.33,1.21,5,5,0,0,0,2.48-.68,2,2,0,0,0,.3-3.4,17.83,17.83,0,0,0-3.66-2.19c-2.8-1.56-5-3.56-4.8-7.08.27-3.75,2.56-6.06,6-7.34a16.34,16.34,0,0,1,10.41-.19c.76.21,1.14.54.91,1.44a20.28,20.28,0,0,0-.58,3.47c-.09,1.13-.47,1.13-1.41.77a9.4,9.4,0,0,0-6.36-.52,2.32,2.32,0,0,0-1.83,1.65c-.21,1,.53,1.62,1.27,2.08,1.16.71,2.39,1.31,3.57,2,2.89,1.65,4.81,3.87,4.41,7.48-.37,3.45-2.32,5.63-5.38,7A14.77,14.77,0,0,1,90.9,365.39Z" transform="translate(-31.12 -134.86)"/><path class="cls-9" d="M59.8,352.58l.88,3.67c1.88-5.14,3.61-9.85,5.34-14.56,1.09-3,1.09-3,4.19-3,4.12,0,4.12,0,2.61,3.76-2.73,6.82-5.5,13.63-8.18,20.47-.58,1.46-1.24,2.51-3,2.07a3.64,3.64,0,0,0-.74,0c-4.31,0-4.32,0-5.38-4.06q-2.41-9.34-4.81-18.68c.51-.41,1-.07,1.33.2C55.67,345,58.59,348.14,59.8,352.58Z" transform="translate(-31.12 -134.86)"/><path class="cls-9" d="M76.16,365c-3.37,0-3.41,0-2.9-3.35,1.11-7.22,2.29-14.43,3.39-21.65.17-1.17.68-1.53,1.82-1.45,1.67.12,3.93-.54,4.85.31s-.16,3.09-.4,4.71c-1,6.49-2.08,13-3,19.46-.23,1.58-.81,2.28-2.43,2A7,7,0,0,0,76.16,365Z" transform="translate(-31.12 -134.86)"/><path class="cls-95" d="M59.8,352.58a22.72,22.72,0,0,0-7.38-9.28c-.55-.38-1.16-.68-1.74-1-2-1.64-4.62-2.15-7.3-3.34a21.37,21.37,0,0,1,4.94-.24q3-.06,5.94,0c2.24,0,3,.63,3.43,2.8C58.43,345.18,59.1,348.88,59.8,352.58Z" transform="translate(-31.12 -134.86)"/><path class="cls-96" d="M436.55,362.36c-3.83.21-7.56,0-10.91-2.21a14,14,0,0,1-5.82-15.61,13.59,13.59,0,0,1,12.88-10,51.12,51.12,0,0,1,9.66.21A13.9,13.9,0,0,1,454.41,350c-.5,6.53-7.1,12.29-14.14,12.32Z" transform="translate(-31.12 -134.86)"/><path class="cls-97" d="M402.65,373.59c1.77-1.33,1.79-8.74,0-10.14,1.74,0,3.41-.09,5.06,0a5.07,5.07,0,0,1,5,4.95,4.83,4.83,0,0,1-4.72,5.14C406.26,373.73,404.48,373.59,402.65,373.59Z" transform="translate(-31.12 -134.86)"/><path class="cls-98" d="M448.78,363.76a4.1,4.1,0,0,0-3.42,4,5.15,5.15,0,0,0,3.07,5.4c.39.46,1.31-.33,1.47.63-3.56.19-5.76-1.44-6.22-4.63a5.11,5.11,0,0,1,4.25-5.77C448.29,363.35,448.73,363.07,448.78,363.76Z" transform="translate(-31.12 -134.86)"/><path class="cls-99" d="M467.79,373.82a7.68,7.68,0,0,1-2.53-.21c-.92,0-.91-.4-.89-1.11.06-2.4.05-4.81.06-7.21a4.81,4.81,0,0,0,0-.93c-.26-1.3-.28-1.3,1.11-1.87.48,1.12.12,2.29.24,3.42.06.56-.26,1.28.59,1.55.35,0,.44.25.44.55-.36,1.9-1.24,3.88.94,5.33a.35.35,0,0,1,.11.31C467.84,373.76,467.82,373.82,467.79,373.82Z" transform="translate(-31.12 -134.86)"/><path class="cls-99" d="M428.69,373.17a2.58,2.58,0,0,1-3.8-.06,4.15,4.15,0,0,1-.25-4.84A2.69,2.69,0,0,1,428,367.1c.9.35,1.57,1,1.44,1.91-.15,1.16-1.22.35-1.79.64-.76.38-2.35-1-2.31,1,0,1.57,1.1,2.29,2.95,2.13C428.69,372.65,428.79,372.82,428.69,373.17Z" transform="translate(-31.12 -134.86)"/><path class="cls-99" d="M422.41,381.94c.34.24.67.12.71-.21a10,10,0,0,0-.22-4.78c.57-.36,1.33-.13,2.05-.13,2.21,0,2.37.57,1.61,2.67-.43,1.16.6,2.13,1.75,2.67v.22c-2.27.8-2.6-1.37-3.7-2.59a2.13,2.13,0,0,0,.7,2.7c-1.14-.18-2.15.44-2.87-.6Z" transform="translate(-31.12 -134.86)"/><path class="cls-100" d="M428.31,382.38v-.22c1-1.1,1.05-3.8.07-5.25,2.78-.6,3.07,2.47,5.11,3.29-.21-1.18.42-2.35-.76-3.23a3.18,3.18,0,0,1,1.65-.13c-.82,1.81-.17,3.7-.56,5.9l-4-4.23c-.14,1.47-.63,2.71.52,3.82A3.92,3.92,0,0,1,428.31,382.38Z" transform="translate(-31.12 -134.86)"/><path class="cls-100" d="M460.41,377c-1,1.71-.09,3.63-.59,5.56-1.71-1-2.5-2.85-4.27-4.1.2,1.47-.49,2.81.76,3.95H454.5c1-1.77.66-3.56.19-5.51,1-.48,1.67.2,2.36,1.05s1.29,1.47,2.08,2.36a3.46,3.46,0,0,0,.21-2.36C459.14,376.77,459.07,376.79,460.41,377Z" transform="translate(-31.12 -134.86)"/><path class="cls-101" d="M456.31,373.62h-2.72c.05-.58.78-.48.76-1.14-.08-2.66.06-5.33-.07-8-.07-1.48-.24-1.48,1.29-1.91,0,1.95-.11,3.87,0,5.76C455.72,370.07,454.93,372,456.31,373.62Z" transform="translate(-31.12 -134.86)"/><path class="cls-102" d="M412.33,377.4c-1-.45-1.34,0-1.33,1,0,1.33,0,2.66,0,4.37a27.49,27.49,0,0,1-3.93-4.07,2,2,0,0,1-1.39-.73c-.39-.28-.9-.28-1.27-.6a.34.34,0,0,1,0-.43c3-.92,4,1.83,6,3.55-.16-1.37.47-2.5-.7-3.51a8.12,8.12,0,0,1,3-.08C412.62,377.06,412.38,377.17,412.33,377.4Z" transform="translate(-31.12 -134.86)"/><path class="cls-103" d="M421.22,379.83c-.52.2-1.31-.44-1.59.39a1.7,1.7,0,0,0,.12,1.39,1.24,1.24,0,0,0,1.81,0c.62-.51.64.06.85.34l0-.05c-1.35,1.2-3,.2-4.47.7a14.55,14.55,0,0,0,.12-5.81c1.17.59,2.94-1.18,3.82,1.1-.54.38-1.16-.34-1.75.15C420,378.94,421.91,378.65,421.22,379.83Z" transform="translate(-31.12 -134.86)"/><path class="cls-104" d="M461.05,372.6c.9-1.91.61-4.24-.64-5.08,2.45-.75,2.41-.71,2.54,1.81.07,1.34-.7,2.87.69,4.05-.93.36-1.83.83-2.56-.32-.11-.1-.16-.19-.13-.3S461,372.6,461.05,372.6Z" transform="translate(-31.12 -134.86)"/><path class="cls-102" d="M419.74,368c-1.51,1.47-.53,3.31-.65,5,0,.71.24.73-.74.66-.41.08-.89.32-.85-.45.09-1.7.69-3.46-.43-5.05-.29-.42,0-.57.26-.61.55-.08,1.13-1,1.66-.08.26.44.5.07.74.15a.27.27,0,0,1,.11.27C419.81,367.91,419.77,368,419.74,368Z" transform="translate(-31.12 -134.86)"/><path class="cls-97" d="M435.7,380.84c.53-1.44.33-3.71,1.93-4,.92-.15,1,2.3,1.6,3.54a7.07,7.07,0,0,0,1.08,2.06c-1-.14-2,.57-2.22-1.26-.11-1.14-1.39-1-2.07.11C435.65,381.34,435.56,381.17,435.7,380.84Z" transform="translate(-31.12 -134.86)"/><path class="cls-100" d="M466.31,382.37c-.62,0-1.23.08-1.85.09-.21,0-.42.13-.39-.42.1-1.72-.18-1.82-1.94-1.09-.36,0-.51-.08-.35-.45.3-1,.61-2,.9-3a1.11,1.11,0,0,1,.87-.87c.6-.05.5.58.68.93.78,1.48.68,3.37,2.08,4.58Z" transform="translate(-31.12 -134.86)"/><path class="cls-105" d="M440.34,376.81c1.42,0,2.84-.05,4.26-.11.23,0,.5-.2.56.12a1.28,1.28,0,0,1-.11.89c-.33.48-.38-.14-.59-.22-.87-.33-1.51-.25-1.39.88.13,1.33-.5,2.76.6,4H441.2c1-1.54.54-3.21.43-4.8,0-.55-.86-.15-1.3-.3-.26.07-.5,0-.5-.27S440.08,376.71,440.34,376.81Z" transform="translate(-31.12 -134.86)"/><path class="cls-106" d="M414.74,373.6a1.37,1.37,0,0,1-1.23,0c1.06-1.76.72-3.6.33-5.44,0-.23-.63-.39-.2-.68A3.25,3.25,0,0,1,415,367c.51-.05.45.45.47.8a38.08,38.08,0,0,0,.17,5.34C415.66,373.91,415.15,373.66,414.74,373.6Z" transform="translate(-31.12 -134.86)"/><path class="cls-107" d="M437.22,367.5c-1.29.64-1.05,1.32,0,2,.51.32,1.13.48,1.62.82,1.32.92,1.15,2.27-.35,3.31-.43.16-.52,0-.46-.42,1-1.47-.25-1.78-1.14-2.26-2-1.09-2.16-2.38-.4-3.74C436.83,367,437.21,366.83,437.22,367.5Z" transform="translate(-31.12 -134.86)"/><path class="cls-102" d="M432.76,368.22c-1.17,1.35-.53,3-.6,4.45,0,.74.86.39,1.57.8a13.31,13.31,0,0,1-3.94.2c1-.74,1.76-3.84,1-5-.66-1-.3-1.05.39-1.49,1.11-.73.77.68,1.29.77C432.65,367.94,432.75,368,432.76,368.22Z" transform="translate(-31.12 -134.86)"/><path class="cls-108" d="M461.05,372.6l0,.46a2.47,2.47,0,0,1-2.87.64c-1.06-.5-.77-1.55-.87-2.45-.13-1.29.56-2.72-.7-3.85,1.53-.58,2.13-.12,1.93,1.46a11.08,11.08,0,0,0,0,2.23C458.68,373,459.2,373.25,461.05,372.6Z" transform="translate(-31.12 -134.86)"/><path class="cls-109" d="M467.79,373.82l0-.38a.59.59,0,0,1,.05-.35c1.57-2.71,1.43-3.35-1.14-5.23l-.32-.4a2.43,2.43,0,0,1,3.48.34,3.78,3.78,0,0,1,.15,4.48A3.18,3.18,0,0,1,467.79,373.82Z" transform="translate(-31.12 -134.86)"/><path class="cls-110" d="M419.74,368v-.41c2.42-1.26,3.37-.69,3.44,2,0,1.33-.28,2.69.29,4-.68.14-1.42.6-1.87-.38.65-1.44.36-3,.22-4.41C421.7,367.54,420.55,368,419.74,368Z" transform="translate(-31.12 -134.86)"/><path class="cls-107" d="M452.6,382.12a3,3,0,0,1-4-.66,2.74,2.74,0,0,1-.14-3.45c.76-1.12,1.81-1.84,3.28-1.13a1,1,0,0,1-.43.63c-1,.49-1.74,1.11-1.48,2.39a1.94,1.94,0,0,0,2.23,1.66A.82.82,0,0,1,452.6,382.12Z" transform="translate(-31.12 -134.86)"/><path class="cls-101" d="M412.33,377.4l.37-.55a20,20,0,0,0,3.88-.1c1.52-.31.9.53.82,1.23-.55-.44-1.11-1-1.79-.57s-.3,1-.26,1.54c.1,1.15-.48,2.4.67,3.46h-2.43c1-1.58.59-3.26.39-4.85C413.92,377,412.91,377.4,412.33,377.4Z" transform="translate(-31.12 -134.86)"/><path class="cls-111" d="M466.31,382.37v-.2a.83.83,0,0,0,.79-1c-.12-1.36.28-2.78-.33-4.24.49-.31,1.19,0,1.94-.12-.82,1.61-.53,3.19-.36,4.68.09.82,1,.58,1.71.33.23-.08.57-.74.77,0,.1.39-.14.68-.63.67Z" transform="translate(-31.12 -134.86)"/><path class="cls-99" d="M445.56,376.86l1.13-.06c.67,0,.91-.13.69.93a6.28,6.28,0,0,0,.35,4.62,4.85,4.85,0,0,1-2.19,0A6.89,6.89,0,0,0,445.56,376.86Z" transform="translate(-31.12 -134.86)"/><path class="cls-99" d="M404.46,376.89v.39c1,1.38.13,3.09.81,4.53a.69.69,0,0,1-.07.56l-2.43.13a8,8,0,0,0,.09-5.57A2.26,2.26,0,0,1,404.46,376.89Z" transform="translate(-31.12 -134.86)"/><path class="cls-99" d="M451.4,377.17l.37-.29a2.1,2.1,0,0,1,2.28,1.9c.25,1.39.06,2.68-1.45,3.34l-.45-.32A5.85,5.85,0,0,0,451.4,377.17Z" transform="translate(-31.12 -134.86)"/><path class="cls-112" d="M421.22,379.83c0-.29.07-.69-.36-.7s-1.32.4-1.36-.64c0-.4-.22-1,.26-1.17a1.48,1.48,0,0,1,1.81.47c.06.08.23.07.34.1-.12.77-.22,1.54-.39,2.3-.06.26-.28.59-.52.1C421,380.2,421.14,380,421.22,379.83Z" transform="translate(-31.12 -134.86)"/><path class="cls-113" d="M448.78,363.76l-.85-.33c1.51-.69,2.94-.15,4.31.37,1.11.41.48,1.43.53,2.28A3.71,3.71,0,0,0,448.78,363.76Z" transform="translate(-31.12 -134.86)"/><path class="cls-114" d="M449.9,373.83c-.37-.48-1.13-.08-1.47-.63a3.24,3.24,0,0,0,3.79-1.51c.84.18.4.73.34,1.17C451.91,373.81,450.87,373.73,449.9,373.83Z" transform="translate(-31.12 -134.86)"/><path class="cls-115" d="M470.94,378.36a.83.83,0,0,1-.9-.93.77.77,0,0,1,.74-.88.89.89,0,0,1,1,.83A.88.88,0,0,1,470.94,378.36Z" transform="translate(-31.12 -134.86)"/><path class="cls-116" d="M437.22,367.5l-.76-.33c2.19-.72,2.91-.28,2.87,1.88C438.59,368.49,438.32,367.37,437.22,367.5Z" transform="translate(-31.12 -134.86)"/><path class="cls-117" d="M432.76,368.22l-.3-.25a5.35,5.35,0,0,1,.7-.8,1,1,0,0,1,1.35-.09.79.79,0,0,1,.25,1c-.3.63-.8.39-1.27.26C433.25,368.28,433,368.26,432.76,368.22Z" transform="translate(-31.12 -134.86)"/><path class="cls-118" d="M406,377.61l1.08,1c-.78.81-.14,1.85-.46,2.72-.3.51-.62.59-1,0C405.38,380.1,405.08,378.8,406,377.61Z" transform="translate(-31.12 -134.86)"/><path class="cls-119" d="M414.84,364.81c-.58-.11-.82-.4-.78-.91a.69.69,0,0,1,.71-.68.76.76,0,0,1,.83.79A.85.85,0,0,1,414.84,364.81Z" transform="translate(-31.12 -134.86)"/><path class="cls-120" d="M461.78,380.5l.35.45c0,.48-.35,1.05.46,1.34a3.58,3.58,0,0,1-1.95.16Z" transform="translate(-31.12 -134.86)"/><path class="cls-121" d="M438,373.17l.46.42a2.39,2.39,0,0,1-2.73,0c.16-.32.55-.17.76-.37Z" transform="translate(-31.12 -134.86)"/><path class="cls-122" d="M421.59,373.15c.51.71,1.26.17,1.87.38l.36.06s.07.05.11.08a3.49,3.49,0,0,1-2.87,0C420.64,373.39,421.23,373.15,421.59,373.15Z" transform="translate(-31.12 -134.86)"/><path class="cls-123" d="M435.7,380.84l.32.48c-.14.44.33.67.4,1.11h-1.75Z" transform="translate(-31.12 -134.86)"/><path class="cls-124" d="M436.49,373.17c-.14.35-.5.26-.76.37-.81-.4-.32-1.1-.35-1.7Z" transform="translate(-31.12 -134.86)"/><path class="cls-110" d="M406,381.72l.66-.35c0,.49.54.57.78,1.11l-2.19-.11v-.19A.66.66,0,0,1,406,381.72Z" transform="translate(-31.12 -134.86)"/><path class="cls-125" d="M417.5,373.14c.17.37.56.31.85.45-.33.06-.66.16-1,.19s-.53,0-.52-.31S417.25,373.2,417.5,373.14Z" transform="translate(-31.12 -134.86)"/><path class="cls-126" d="M452.56,372.86c-.14-.38,0-.86-.34-1.17,0-.3.12-.68.41-.69.46,0,.28.43.24.66A8.46,8.46,0,0,1,452.56,372.86Z" transform="translate(-31.12 -134.86)"/><path class="cls-127" d="M440.34,376.81c-.32.16-.32.33,0,.5-.21.2-.45.59-.62.56-.43-.07-.2-.48-.16-.74C439.61,376.61,439.81,376.27,440.34,376.81Z" transform="translate(-31.12 -134.86)"/><path class="cls-125" d="M414.74,373.6c.31-.13.72-.08.91-.46.24.06.64-.11.64.34s-.31.32-.53.3S415.08,373.66,414.74,373.6Z" transform="translate(-31.12 -134.86)"/><path class="cls-128" d="M428.69,373.17l-.39-.39c.35-.26.71-.51,1.17-.83A1.11,1.11,0,0,1,428.69,373.17Z" transform="translate(-31.12 -134.86)"/><path class="cls-129" d="M301.3,358.19l1.3-3.47c.5,1.3.89,2.31,1.29,3.37A5.91,5.91,0,0,1,301.3,358.19Z" transform="translate(-31.12 -134.86)"/><path class="cls-129" d="M266.28,358.22h-2.6c.41-1.14.8-2.18,1.21-3.32A13,13,0,0,1,266.28,358.22Z" transform="translate(-31.12 -134.86)"/><path class="cls-130" d="M313.2,353c0-.53-.16-1.16.73-1.08.35.42.18.88.11,1.34Z" transform="translate(-31.12 -134.86)"/><path class="cls-131" d="M219,361.71a3.21,3.21,0,0,0-.64.86,1.07,1.07,0,0,1-1.25.8,1.39,1.39,0,0,1-1.26-1.14,4.4,4.4,0,0,1,.61-3.65c1.79-.45,2.37-.07,2.5,1.67C219,360.73,218.92,361.22,219,361.71Z" transform="translate(-31.12 -134.86)"/><path class="cls-132" d="M219,361.71c-.46-.29-.36-.76-.36-1.17,0-1.48-.62-2.23-2.18-2a1.51,1.51,0,0,1,1.94-.93,1.76,1.76,0,0,1,1,2C219.35,360.33,219.5,361.1,219,361.71Z" transform="translate(-31.12 -134.86)"/><path class="cls-133" d="M202.94,363.18c-.46.66-1.08.91-1.74.43A1,1,0,0,1,201,362C202.84,361.41,203,361.51,202.94,363.18Z" transform="translate(-31.12 -134.86)"/><path class="cls-134" d="M202.94,363.18c0-1.51-1-1.17-1.92-1.16.2-.22.35-.55.59-.64.63-.23,1.49-.53,1.9,0S203.53,362.68,202.94,363.18Z" transform="translate(-31.12 -134.86)"/><path class="cls-135" d="M207,360.1a4,4,0,0,1-.37,2.41A4,4,0,0,1,207,360.1Z" transform="translate(-31.12 -134.86)"/><path class="cls-136" d="M206.62,365.71h-.34a3.11,3.11,0,0,1,.32-2C206.61,364.36,206.62,365,206.62,365.71Z" transform="translate(-31.12 -134.86)"/><path class="cls-137" d="M183.85,357.5c-.54.15-.15.87-.64,1.05-.43-.24-.09-.72-.34-1a3.86,3.86,0,0,0-4.14-2.89,4.18,4.18,0,0,0-4.19,3.06c-.19.56-.47,1.09-.71,1.64-1,1.24-.59,2.73-.72,4.12-1.17.18-1.75-.23-1.49-1.49s.47-2.22.7-3.33c.29-.37.77-.49,1.09-.82.69-.56.43-1.45.75-2.14.14-.32.11-.78-.45-.75-1.7.08-.62-.92-.59-1.51l16.34,0c.19.67-.26,1-.69,1.37-.54-.08-.86.46-1.52.32C184.53,354.57,184.5,354.65,183.85,357.5Z" transform="translate(-31.12 -134.86)"/><path class="cls-138" d="M147.85,360.88c0-.17-.07-.34-.11-.5.17-.57.34-1.13.5-1.7.7,0,.37.48.34.81a4.63,4.63,0,0,1-.39,2.2C147.85,361.51,148,361.12,147.85,360.88Z" transform="translate(-31.12 -134.86)"/><path class="cls-139" d="M148.58,359.49l-.34-.81.5-1.48C149,358.32,149,358.92,148.58,359.49Z" transform="translate(-31.12 -134.86)"/><path class="cls-8" d="M147.85,360.88l.34.81-.13,1-.31-.76C147.78,361.6,147.82,361.24,147.85,360.88Z" transform="translate(-31.12 -134.86)"/><path class="cls-140" d="M182.7,362.73l-.34.42a22,22,0,0,1-2.9.5c-1,0-2.16,0-2.56-1.28.87-.69,1.89-.27,2.85-.38.77-.09,1.6.2,2.31-.36l.66-.34C182.71,361.77,182.71,362.25,182.7,362.73Z" transform="translate(-31.12 -134.86)"/><path class="cls-141" d="M182.06,361.63c0,.83-.64.72-1.17.73h-4c-.26-.73.17-.83.74-.82Z" transform="translate(-31.12 -134.86)"/><path class="cls-142" d="M177.48,358.2c1.09-1.16,2.22-1.19,2.6,0,.23.68.18,1.27-.83.89C178.62,358.86,177.9,358.83,177.48,358.2Z" transform="translate(-31.12 -134.86)"/><path class="cls-143" d="M177.48,358.2c.7.06,1.51-.11,1.77.85C177.27,359.37,177.22,359.34,177.48,358.2Z" transform="translate(-31.12 -134.86)"/><path class="cls-66" d="M182.87,357.53c.34.26.27.67.34,1-.29.61.26,1.37-.37,1.91Z" transform="translate(-31.12 -134.86)"/><path class="cls-144" d="M160.28,364.54h-.06l.63-4.14c.68,1.64,2.54,1.91,3.61,3.11a1.8,1.8,0,0,1-1.89.14A1.64,1.64,0,0,0,160.28,364.54Z" transform="translate(-31.12 -134.86)"/><path class="cls-145" d="M156.69,363.37c-.44.4-.93.7-1.49.3a1.06,1.06,0,0,1-.3-1.61C156.79,361.45,157,361.6,156.69,363.37Z" transform="translate(-31.12 -134.86)"/><path class="cls-146" d="M156.69,363.37c.33-1.69-.79-1.41-1.79-1.31.1-.14.16-.33.3-.43.74-.55,1.81-.84,2.34-.22S157.46,362.91,156.69,363.37Z" transform="translate(-31.12 -134.86)"/><path class="cls-147" d="M167.59,357.56c-.58,1.53-1.86.31-2.72.7C165.44,356.75,166.65,357.68,167.59,357.56Z" transform="translate(-31.12 -134.86)"/><path class="cls-148" d="M173.41,357.82c0,.78-.47.88-1.09.82C172.16,357.68,172.63,357.54,173.41,357.82Z" transform="translate(-31.12 -134.86)"/><path class="cls-149" d="M112.76,355.58c1.12-3.07,2.18-6,3.24-8.92l.33,0c.59,2.92,1.19,5.85,1.8,8.87Z" transform="translate(-31.12 -134.86)"/><path class="cls-44" d="M446.19,348.47a12.77,12.77,0,1,1-12.69-12.85A12.81,12.81,0,0,1,446.19,348.47Z" transform="translate(-31.12 -134.86)"/><path class="cls-1" d="M405.4,368.28v-2.22c0-2.27.4-2.55,2.61-1.86a4.51,4.51,0,0,1,3.08,4.55,4.18,4.18,0,0,1-3.32,4.31c-1.66.33-2.3-.15-2.36-1.82C405.38,370.25,405.4,369.27,405.4,368.28Z" transform="translate(-31.12 -134.86)"/><path class="cls-150" d="M466.68,367.86a2.33,2.33,0,0,1,2.53,2,3,3,0,0,1-1.44,3.62c-1.52.08-2.14-.76-2-2.15C465.91,370.12,465.1,368.66,466.68,367.86Z" transform="translate(-31.12 -134.86)"/><path class="cls-151" d="M425.42,369.18c.24-1.25.8-1.78,1.84-1.61.55.08,1,.73.84,1C427.44,369.61,426.37,368.76,425.42,369.18Z" transform="translate(-31.12 -134.86)"/><path class="cls-152" d="M424.34,378.4c.12-.41-.26-1.08.52-1.15s1,.47,1,1.05a1,1,0,0,1-.94,1.14C424.1,379.51,424.44,378.81,424.34,378.4Z" transform="translate(-31.12 -134.86)"/><path class="cls-153" d="M406,381.72l-.75.46c-.76-.07-.82-.6-.8-1.2,0-1.23,0-2.47.06-3.7.57-.15,1.12-.25,1.53.33C406,379,406,380.35,406,381.72Z" transform="translate(-31.12 -134.86)"/><path class="cls-44" d="M437,378.44c.43.41.87.8.42,1.38a.54.54,0,0,1-.51,0C436.25,379.28,437.2,378.94,437,378.44Z" transform="translate(-31.12 -134.86)"/><path class="cls-154" d="M463.15,378.3c.12.57.75.95.27,1.49a.68.68,0,0,1-.65,0C462.4,379.22,462.9,378.84,463.15,378.3Z" transform="translate(-31.12 -134.86)"/><path class="cls-155" d="M451.4,377.17c1.76,1.4,2,2.54.75,4.63-1.74.43-2.43,0-2.78-1.77S449.64,377.45,451.4,377.17Z" transform="translate(-31.12 -134.86)"/><path class="cls-156" d="M436.3,348.28c0-2,.06-4,0-5.94-.05-1.37.43-1.26,1.35-.71,5,3,5,10.76-.07,13.65-.92.53-1.31.49-1.28-.69C436.34,352.48,436.3,350.38,436.3,348.28Z" transform="translate(-31.12 -134.86)"/><path class="cls-157" d="M430.48,341.25c0,4.58,0,9.13,0,13.67,0,.75-.27.79-.9.54-2.32-.95-4.31-4.4-4.19-7.33A7.46,7.46,0,0,1,430.48,341.25Z" transform="translate(-31.12 -134.86)"/></svg>